<svg xmlns="http://www.w3.org/2000/svg" height="1200" width="1600" version="1.1" xmlns:xlink="http://www.w3.org/1999/xlink" xmlns:svgjs="http://svgjs.com/svgjs"><rect fill="#b269fc" width="1600" height="1200"></rect><g><path d="M1005.65 301.05H1384.95C1402.25 301.05 1416.25 315.05 1416.25 332.35V892.75C1416.25 910.05 1402.25 924.05 1384.95 924.05H1005.65C988.35 924.05 974.35 910.05 974.35 892.75V332.35C974.35 315.05 988.35 301.05 1005.65 301.05Z" fill="#ff3089" opacity="1" stroke-width="4" stroke="none"></path><path d="M1151.15 301.05V924.05" stroke="#241c20" stroke-width="4" stroke-linecap="round" stroke-linejoin="round" opacity="1" fill="none"></path><path d="M1062.75 301.05V924.05" stroke="#241c20" stroke-width="4" stroke-linecap="round" stroke-linejoin="round" opacity="1" fill="none"></path><path d="M1239.45 301.05V924.05" stroke="#241c20" stroke-width="4" stroke-linecap="round" stroke-linejoin="round" opacity="1" fill="none"></path><path d="M1327.85 301.05V924.05" stroke="#241c20" stroke-width="4" stroke-linecap="round" stroke-linejoin="round" opacity="1" fill="none"></path><path d="M974.35 746.25H1416.25" stroke="#241c20" stroke-width="4" stroke-linecap="round" stroke-linejoin="round" opacity="1" fill="none"></path><path d="M974.35 835.25L1416.25 835.65" stroke="#241c20" stroke-width="4" stroke-linecap="round" stroke-linejoin="round" opacity="1" fill="none"></path><path d="M974.35 567.95L1416.25 568.15" stroke="#241c20" stroke-width="4" stroke-linecap="round" stroke-linejoin="round" opacity="1" fill="none"></path><path d="M974.65 657.25H1416.25" stroke="#241c20" stroke-width="4" stroke-linecap="round" stroke-linejoin="round" opacity="1" fill="none"></path><path d="M974.35 479.05L1416.25 479.15" stroke="#241c20" stroke-width="4" stroke-linecap="round" stroke-linejoin="round" opacity="1" fill="none"></path><path d="M974.35 390.05H1416.25" stroke="#241c20" stroke-width="4" stroke-linecap="round" stroke-linejoin="round" opacity="1" fill="none"></path></g><g><path d="M957.13 195.66H1279.43C1296.73 195.66 1310.73 209.66 1310.73 226.96V787.36C1310.73 804.66 1296.73 818.66 1279.43 818.66H957.13C939.83 818.66 925.83 804.66 925.83 787.36V226.96C925.83 209.66 939.93 195.66 957.13 195.66Z" fill="#ffbe32" opacity="1" stroke-width="4" stroke="none"></path><path d="M1123.43 184.26L1147.33 145.66H1213.53C1230.83 145.66 1244.83 159.66 1244.83 176.96V282.66L1217.43 317.66 1123.53 291.06 1123.43 184.26Z" fill="#23201f" opacity="1" stroke-width="4" stroke="none"></path><path d="M1154.43 174.36V262.86L1102.73 634.26 920.93 602.66 888.13 400.66 879.33 195.66 974.93 171.96 1154.43 174.36Z" fill="#ffcaa0" opacity="1" stroke-width="4" stroke="none"></path><path d="M879.33 463.06L859.93 507.16V737.36C859.93 754.66 873.93 768.66 891.23 768.66H920.93L988.73 743.66 981.93 424.66 879.33 463.06Z" fill="#ffbe32" opacity="1" stroke-width="4" stroke="none"></path><path d="M891.23 145.66C873.93 145.66 859.93 159.66 859.93 176.96V507.16C886.93 470.66 960.93 496.66 979.93 435.66 1001.23 367.26 849.73 300.26 897.93 233.66 939.93 175.66 1045.93 234.66 1111.93 217.66 1177.93 200.66 1147.33 145.66 1147.33 145.66H891.23Z" fill="#ffffff" opacity="1" stroke-width="4" stroke="none"></path><path d="M954.13 611.16V760.46H1039.93L972.03 615.66 954.13 611.16Z" fill="#ffd561" opacity="1" stroke-width="4" stroke="none"></path><path d="M1024.93 311.66V602.66H1187.63V423.66L1024.93 311.66Z" fill="#ffd561" opacity="1" stroke-width="4" stroke="none"></path><path d="M920.93 768.66H1213.63C1230.93 768.66 1244.93 754.66 1244.93 737.36L1244.83 282.76C1244.83 282.76 1062.93 227.66 1031.93 284.66 984.63 371.66 1189.53 470.36 1155.93 542.66 1129.93 598.66 985.83 541.06 958.93 592.66 934.93 638.66 1009.73 689.86 1002.93 721.66 996.93 749.66 930.93 737.66 920.93 768.66Z" fill="#ffffff" opacity="1" stroke-width="4" stroke="none"></path><path d="M1093.93 448.66C1107.18 448.66 1117.93 437.91 1117.93 424.66 1117.93 411.41 1107.18 400.66 1093.93 400.66 1080.68 400.66 1069.93 411.41 1069.93 424.66 1069.93 437.91 1080.68 448.66 1093.93 448.66Z" fill="#23201f" opacity="1" stroke-width="4" stroke="none"></path></g><g><path d="M482 968H625.4L649.4 940.8H884.2L795 968 858.4 1020.3 795.5 1067H482V968Z" fill="#cecece" opacity="1" stroke-width="4" stroke="none"></path><path d="M794.9 950.6L908.2 954.7V1067H795.5L794.9 950.6Z" fill="#23201f" opacity="1" stroke-width="4" stroke="none"></path><path d="M625.4 869H768.8L798.3 835.2 1015.4 832.7 938.9 869 995.3 927.2 938.9 968H625.4V869Z" fill="#cecece" opacity="1" stroke-width="4" stroke="none"></path><path d="M938.9 855.9L1051.7 853.9 1051.6 968H938.9V855.9Z" fill="#23201f" opacity="1" stroke-width="4" stroke="none"></path><path d="M768.8 770H1082.3L1161.7 818 1082.3 869H1035.6 1022 783.2 768.8V770Z" fill="#cecece" opacity="1" stroke-width="4" stroke="none"></path><path d="M1195 770H1082.3V869H1195V770Z" fill="#23201f" opacity="1" stroke-width="4" stroke="none"></path><path d="M908 968H625.4" stroke="#5c5c5c" stroke-width="4" stroke-linecap="round" stroke-linejoin="round" opacity="1" fill="none"></path><path d="M1052 869H768.4" stroke="#5c5c5c" stroke-width="4" stroke-linecap="round" stroke-linejoin="round" opacity="1" fill="none"></path><path d="M1195 770H860" stroke="#5c5c5c" stroke-width="4" stroke-linecap="round" stroke-linejoin="round" opacity="1" fill="none"></path></g><g><path d="M1462.4 878.4L1453 887.8C1437.6 903.2 1416.5 896.1 1401.1 891 1388.9 886.9 1380 884.3 1376.5 887.8 1373 891.3 1375.6 900.2 1379.7 912.4 1384.8 927.8 1391.9 948.9 1376.5 964.3 1361.1 979.7 1340 972.6 1324.6 967.5 1312.4 963.4 1303.5 960.8 1300 964.3 1296.5 967.8 1299.1 976.7 1303.2 988.9 1308.3 1004.3 1315.4 1025.4 1300 1040.8 1284.6 1056.2 1263.5 1049.1 1248.1 1044 1235.9 1039.9 1227 1037.3 1223.5 1040.8L1214.1 1050.2 1195.3 1031.4 1204.7 1022C1220.1 1006.6 1241.2 1013.7 1256.6 1018.8 1268.8 1022.9 1277.7 1025.5 1281.2 1022 1284.7 1018.5 1282.1 1009.6 1278 997.4 1272.9 982 1265.8 960.9 1281.2 945.5 1296.6 930.1 1317.7 937.2 1333.1 942.3 1345.3 946.4 1354.2 949 1357.7 945.5 1361.2 942 1358.6 933.1 1354.5 920.9 1349.4 905.5 1342.3 884.4 1357.7 869 1373.1 853.6 1394.2 860.7 1409.6 865.8 1421.8 869.9 1430.7 872.5 1434.2 869L1443.6 859.6 1462.4 878.4Z" fill="#ffffff" opacity="1" stroke-width="4" stroke="none"></path></g><g><path d="M305.1 135.27L414.8 214.97C415.2 214.57 415.4 213.57 415.2 212.77L377.8 87.37 307.1 121.17C306.3 121.47 304.5 134.67 305.1 135.27Z" fill="#ffcaa0" opacity="1" stroke-width="4" stroke="none"></path><path d="M414.5 215.07L299 157.57C298.7 157.37 298.5 157.07 298.6 156.67L306.5 121.67C306.6 121.07 307.3 120.87 307.8 121.27L414.9 214.57C415.1 214.87 414.8 215.27 414.5 215.07Z" fill="#23201f" opacity="1" stroke-width="4" stroke="none"></path></g><g><path d="M211.17 278.91H474.26C508.28 278.91 513.77 299.19 513.77 333.36L536.03 566.86V603.77C536.03 637.78 508.43 665.54 474.26 665.54H211.17C177.16 665.54 149.4 637.94 149.4 603.77V566.86L187.23 341.75C187.23 307.58 177.01 278.91 211.17 278.91Z" fill="#23201f" opacity="1" stroke-width="4" stroke="none"></path><path d="M211.17 242H474.26C508.28 242 536.03 269.61 536.03 303.77V566.86C536.03 600.87 508.43 628.63 474.26 628.63H211.17C177.16 628.63 149.4 601.03 149.4 566.86V303.62C149.4 269.61 177.01 242 211.17 242Z" fill="#ff3089" opacity="1" stroke-width="4" stroke="none"></path></g><g><path d="M293.11 400.34L250.21 281.7C249.33 279.19 250.59 276.42 253.1 275.54 254.99 274.91 257.13 275.41 258.39 276.92L339.41 372.41 293.11 400.34Z" fill="#ffffff" opacity="1" stroke-width="4" stroke="none"></path><path d="M475.91 453.18C447.22 386.75 387.59 323.6 362.3 298.56 359.41 295.79 354.88 295.79 352.11 298.69 350.86 299.95 350.1 301.71 349.98 303.59L348.72 348.13 223.41 428.65C203.66 441.35 197.37 467.27 209.07 487.65L209.7 488.66C222.16 510.55 249.96 518.09 271.85 505.64 272.6 505.26 273.36 504.76 274.11 504.26 283.68 498.09 291.1 493.31 291.1 493.31 300.79 501.87 325.44 509.79 339.91 505.01L319.91 574.08C318.15 580.37 321.67 586.91 327.83 588.8 410.49 615.59 514.78 543.13 475.91 453.18Z" fill="#ffbe32" opacity="1" stroke-width="4" stroke="none"></path><path d="M335.76 411.54C339.23 411.54 342.05 408.72 342.05 405.25 342.05 401.77 339.23 398.96 335.76 398.96 332.29 398.96 329.47 401.77 329.47 405.25 329.47 408.72 332.29 411.54 335.76 411.54Z" fill="#231f20" opacity="1" stroke-width="4" stroke="none"></path><path d="M339.91 505.01C357.9 500.23 367.46 483.75 367.46 483.75" stroke="#100b00" stroke-width="4" stroke-linecap="round" stroke-linejoin="round" opacity="1" fill="none"></path><path d="M348.72 348.13L347.08 366.12" stroke="#100b00" stroke-width="4" stroke-linecap="round" stroke-linejoin="round" opacity="1" fill="none"></path><path d="M225.93 505.26L260.65 484.5" stroke="#100b00" stroke-width="4" stroke-linecap="round" stroke-linejoin="round" opacity="1" fill="none"></path><path d="M226.06 454.94L222.28 467.9C221.4 471.17 223.16 474.44 226.43 475.45 227.06 475.7 227.82 475.7 228.45 475.7H228.95C232.35 475.45 234.86 472.68 234.61 469.28 234.61 468.65 234.36 467.9 234.11 467.27L228.82 454.81C228.45 454.06 227.57 453.68 226.81 454.06 226.43 454.18 226.18 454.56 226.06 454.94Z" fill="#332b1a" opacity="1" stroke-width="4" stroke="none"></path><path d="M282.04 369.64L305.94 333.03" stroke="#6a6a6a" stroke-width="4" stroke-linecap="round" stroke-linejoin="round" opacity="1" fill="none"></path><path d="M270.34 337.31L287.45 311.27" stroke="#6a6a6a" stroke-width="4" stroke-linecap="round" stroke-linejoin="round" opacity="1" fill="none"></path><path d="M259.39 306.99L269.96 290.64" stroke="#6a6a6a" stroke-width="4" stroke-linecap="round" stroke-linejoin="round" opacity="1" fill="none"></path></g><g><path d="M409.34 428.44H653.37C673.4 428.44 689.69 444.72 689.69 464.76V708.79C689.69 728.82 673.4 745.11 653.37 745.11H409.34C389.3 745.11 373.02 728.82 373.02 708.79V464.76C373.02 444.72 389.3 428.44 409.34 428.44Z" fill="#23201f" opacity="1" stroke-width="4" stroke="none"></path></g><g><path d="M408.97 430.18H659.31C678.66 430.18 694.37 445.9 694.37 465.25V709.37C694.37 728.72 678.66 744.44 659.31 744.44H408.97C389.62 744.44 373.91 728.72 373.91 709.37V465.25C373.91 445.9 389.62 430.18 408.97 430.18Z" fill="#23201f" opacity="1" stroke-width="4" stroke="none"></path><path d="M423.53 430.18L481.94 496.76 497.56 430.18" stroke="#ffffff" stroke-width="4" stroke-linecap="round" stroke-linejoin="round" opacity="1" fill="none"></path><path d="M402.93 546.47L481.94 496.76 525.44 568.67 402.93 546.47Z" stroke="#ffffff" stroke-width="4" stroke-linecap="round" stroke-linejoin="round" opacity="1" fill="none"></path><path d="M534.14 430.18L552.96 471.91 525.44 568.67 663.04 619.27 694.37 568.67" stroke="#ffffff" stroke-width="4" stroke-linecap="round" stroke-linejoin="round" opacity="1" fill="none"></path><path d="M603.56 430.18L552.96 471.91 694.37 465.25" stroke="#ffffff" stroke-width="4" stroke-linecap="round" stroke-linejoin="round" opacity="1" fill="none"></path><path d="M525.44 568.67L455.31 699.16 576.04 668.09 525.44 568.67Z" stroke="#ffffff" stroke-width="4" stroke-linecap="round" stroke-linejoin="round" opacity="1" fill="none"></path><path d="M373.64 490.55L402.93 546.47 373.91 568.67" stroke="#ffffff" stroke-width="4" stroke-linecap="round" stroke-linejoin="round" opacity="1" fill="none"></path><path d="M373.64 630.45L455.31 699.16 418.02 744.44" stroke="#ffffff" stroke-width="4" stroke-linecap="round" stroke-linejoin="round" opacity="1" fill="none"></path><path d="M464.19 744.44L455.31 699.16" stroke="#ffffff" stroke-width="4" stroke-linecap="round" stroke-linejoin="round" opacity="1" fill="none"></path><path d="M561.57 744.44L576.04 668.09 663.04 619.27 694.37 656.55" stroke="#ffffff" stroke-width="4" stroke-linecap="round" stroke-linejoin="round" opacity="1" fill="none"></path><path d="M576.04 668.09L694.37 687.62" stroke="#ffffff" stroke-width="4" stroke-linecap="round" stroke-linejoin="round" opacity="1" fill="none"></path><path d="M525.44 580.21C531.81 580.21 536.98 575.04 536.98 568.67 536.98 562.29 531.81 557.13 525.44 557.13 519.07 557.13 513.9 562.29 513.9 568.67 513.9 575.04 519.07 580.21 525.44 580.21Z" fill="#ffffff" opacity="1" stroke-width="4" stroke="none"></path><path d="M455.31 710.7C461.68 710.7 466.85 705.54 466.85 699.16 466.85 692.79 461.68 687.62 455.31 687.62 448.94 687.62 443.77 692.79 443.77 699.16 443.77 705.54 448.94 710.7 455.31 710.7Z" fill="#ffffff" opacity="1" stroke-width="4" stroke="none"></path><path d="M663.04 630.81C669.41 630.81 674.58 625.64 674.58 619.27 674.58 612.89 669.41 607.73 663.04 607.73 656.66 607.73 651.5 612.89 651.5 619.27 651.5 625.64 656.66 630.81 663.04 630.81Z" fill="#ffffff" opacity="1" stroke-width="4" stroke="none"></path><path d="M552.96 483.45C559.33 483.45 564.5 478.28 564.5 471.91 564.5 465.53 559.33 460.37 552.96 460.37 546.58 460.37 541.42 465.53 541.42 471.91 541.42 478.28 546.58 483.45 552.96 483.45Z" fill="#ffffff" opacity="1" stroke-width="4" stroke="none"></path><path d="M481.94 508.3C488.31 508.3 493.48 503.14 493.48 496.76 493.48 490.39 488.31 485.22 481.94 485.22 475.57 485.22 470.4 490.39 470.4 496.76 470.4 503.14 475.57 508.3 481.94 508.3Z" fill="#ffffff" opacity="1" stroke-width="4" stroke="none"></path><path d="M402.93 558.02C409.31 558.02 414.47 552.85 414.47 546.47 414.47 540.1 409.31 534.93 402.93 534.93 396.56 534.93 391.39 540.1 391.39 546.47 391.39 552.85 396.56 558.02 402.93 558.02Z" fill="#ffffff" opacity="1" stroke-width="4" stroke="none"></path><path d="M576.04 679.63C582.41 679.63 587.58 674.47 587.58 668.09 587.58 661.72 582.41 656.55 576.04 656.55 569.67 656.55 564.5 661.72 564.5 668.09 564.5 674.47 569.67 679.63 576.04 679.63Z" fill="#ffffff" opacity="1" stroke-width="4" stroke="none"></path></g><g><path d="M903.37 373.17L902.9 366.64C923.55 345.32 937.57 332.43 944.59 328.26 965.15 316.04 992.72 306.95 1003.71 306.95 1006.93 306.95 1008.73 307.71 1008.92 309.32 1009.77 316.04 987.69 326.37 984.47 327.79 990.92 331.2 989.4 339.16 989.12 340.3 996.22 346.65 992.24 352.99 991.58 353.94 992.43 354.89 997.83 361.62 990.44 369.01 985.89 373.55 981.54 374.5 978.79 374.5 977.08 374.5 975.95 374.12 975.57 374.03 968.37 386.15 954.91 389.94 953.68 390.23 953.4 390.89 951.41 395.44 948.19 401.98L941.65 403.49 903.37 373.17Z" fill="#e59763" opacity="1" stroke-width="4" stroke="none"></path><path d="M718.34 334.14V333.95C715.49 321.54 711.23 302.12 707.06 280.32 703.55 261.66 705.92 246.31 714.07 235.89 721.37 226.51 732.93 221.3 748.37 220.26 749.89 220.16 751.31 220.16 752.73 220.16 782.76 220.16 793.56 240.53 799.72 258.34 800.67 261.19 801.71 264.03 802.56 266.87 803.7 266.96 811.09 267.72 812.04 271.42 812.99 275.02 808.06 280.23 807.3 280.99 810.81 292.64 811.85 299.46 812.13 303.25 812.32 306.09 812.23 313.2 807.02 318.89 802.37 323.91 794.98 326.37 785.04 326.37 782.29 326.37 779.35 326.18 776.32 325.8L777.83 334.61 718.34 334.14Z" fill="#e59763" opacity="1" stroke-width="4" stroke="none"></path><path d="M764.19 322.77C764.19 322.77 770.63 324.85 774.8 325.52L776.32 325.8 777.74 334.23 773.1 339.92 764.19 322.77Z" fill="#030202" opacity="0.2" stroke-width="4" stroke="none"></path><path d="M681.2 522.68C659.88 520.41 645 506.67 641.5 485.73 638.28 466.69 649.74 413.25 671.63 381.13 692.56 350.44 718.24 344.66 720.8 344.18 720.61 343.33 719.66 339.63 718.34 333.95L718.24 333.76 777.65 333.57 779.07 341.43C792.05 342.1 804.65 344.85 816.78 349.58 835.44 356.97 868.13 397.9 870.59 400.93 872.2 399.13 886.79 383.12 902.9 366.54L902.99 366.45 948.28 401.79 948.19 401.98C936.91 424.81 907.54 477.87 879.02 478.91 878.36 478.91 877.6 478.91 876.94 478.91 858.37 478.91 841.5 469.62 830.61 461.86 820 454.28 812.89 446.6 811.47 445.09L793.18 521.54 681.2 522.68Z" fill="#ffd561" opacity="1" stroke-width="4" stroke="none"></path><path d="M681.2 522.68C674.28 522.02 667.55 519.93 661.58 516.43L661.3 516.24 661.58 516.05C677.41 504.77 680.44 488.95 682.9 476.16 684.61 467.16 686.03 459.49 691.62 455.89L691.81 455.7 702.13 504.11 681.2 522.68Z" fill="#686868" opacity="0.2" stroke-width="4" stroke="none"></path><path d="M800.48 433.05L811.47 445.09 793.18 521.73 764.29 522.68 800.48 433.05Z" fill="#686868" opacity="0.2" stroke-width="4" stroke="none"></path><path d="M633.63 371.85C630.98 336.22 649.93 323.34 668.22 310.74 682.33 301.07 695.69 291.98 699.01 273.22 705.83 235.13 717.39 222.53 748.46 219.02 750.55 218.83 752.63 218.65 754.72 218.65 778.59 218.65 789.58 234.56 793.94 244.23 793.94 244.23 792.24 255.6 775.37 255.6 774.14 255.6 772.81 255.5 772.97 255.66 774.14 263.74 772.45 272.51 767.6 279.94L767.55 280.04 767.31 279.95C767.32 279.94 757.28 276.25 748.27 276.25 740.79 276.25 736.15 278.71 734.44 283.64 729.52 298.33 752.16 313.58 752.35 313.77H752.44V313.86C752.54 314.15 759.93 345.51 748.65 371.75L748.56 371.85H633.63V371.85Z" fill="#231f20" opacity="1" stroke-width="4" stroke="none"></path><path d="M689.25 243.18C711.07 243.18 728.76 225.5 728.76 203.68 728.76 181.86 711.07 164.17 689.25 164.17 667.43 164.17 649.74 181.86 649.74 203.68 649.74 225.5 667.43 243.18 689.25 243.18Z" fill="#231f20" opacity="1" stroke-width="4" stroke="none"></path><path d="M750.36 323.72C756.21 323.72 760.97 318.97 760.97 313.11 760.97 307.24 756.21 302.49 750.36 302.49 744.49 302.49 739.75 307.24 739.75 313.11 739.75 318.97 744.49 323.72 750.36 323.72Z" fill="#ffffff" opacity="1" stroke-width="4" stroke="none"></path><path d="M797.54 503.54V503.35H777.17 702.04 701.94C652.68 541.63 642.16 576.69 630.98 613.83 624.63 634.95 618.1 656.75 604.26 680.62 597.35 692.65 589.67 701.56 580.77 711.98 566.08 729.13 547.79 750.54 521.83 797.16 521.17 798.39 520.51 799.62 519.84 800.85L520.03 811.08 594.31 844.34 602.56 840.36C612.22 825.2 625.01 809.28 637.42 793.84 645.19 784.18 653.25 774.13 660.54 764.28L660.92 763.71C676.74 742.3 690.39 723.82 707.63 687.92 708.01 692.94 708.29 698.15 708.39 703.45 708.86 729.7 705.73 744.67 701.85 763.71 697.97 782.85 693.04 806.63 690.39 850.31V851.07L697.11 861.11 771.39 860.07 778.88 851.35C781.53 829.56 785.98 804.93 790.34 781.05 793.18 765.04 795.93 749.78 797.92 736.71 806.16 681.28 814.12 628.98 797.54 503.54Z" fill="#ff3089" opacity="1" stroke-width="4" stroke="none"></path><path d="M680.91 735.67C681.01 735.48 685.74 716.24 686.69 681.66 686.97 671.43 686.97 662.24 686.97 654.19 686.97 627 684.8 613.07 695.03 603.59L707.91 687.44C694.46 715.01 686.97 726.29 686.97 726.29L680.91 735.67Z" fill="#1b1b1b" opacity="0.2" stroke-width="4" stroke="none"></path><path d="M694.36 592.89C695.98 622.73 705.45 652.77 707.63 687.92" stroke="#1b1b1b" stroke-width="4" stroke-linecap="round" stroke-linejoin="round" opacity="1" fill="none"></path><path d="M696.16 952.54L693.42 947.9C690.86 924.59 688.21 888.87 690.39 851.26V851.07H778.97L778.88 851.73C775.28 881.39 775.94 899.29 780.87 907.25 789.2 920.61 798.39 928.19 806.45 934.82 811.85 939.18 816.49 942.97 820 947.8L819.33 953.96 696.16 952.54Z" fill="#ffffff" opacity="1" stroke-width="4" stroke="none"></path><path d="M696.16 968.83V968.65C696.16 968.55 694.84 960.69 693.42 947.9V947.71H820L820.09 947.8C824.35 953.58 826.34 960.21 826.34 968.65V968.83H696.16V968.83Z" fill="#808080" opacity="1" stroke-width="4" stroke="none"></path><path d="M488.39 897.68L486.97 891.14C492.37 867.93 502.41 833.35 519.84 800.85L519.94 800.66 602.75 840.17 602.65 840.36C588.91 861.96 583.51 878.92 585.69 893.8 587.87 908.86 592.7 919.38 596.97 928.66 600 935.2 602.37 941.07 603.5 947.04L598.58 951.02 488.39 897.68Z" fill="#ffffff" opacity="1" stroke-width="4" stroke="none"></path><path d="M482.52 912.75C482.52 912.56 483.84 904.22 486.87 891.24L486.97 891.05 603.5 946.95C604.83 954.15 603.69 961.16 599.9 968.83L599.81 969.02 482.52 912.75Z" fill="#808080" opacity="1" stroke-width="4" stroke="none"></path><path d="M801.71 291.41C800.19 292.45 795.46 292.64 792.52 289.32" stroke="#030202" stroke-width="4" stroke-linecap="round" stroke-linejoin="round" opacity="1" fill="none"></path><path d="M792.52 276.06C790.91 276.06 789.68 274.73 789.68 273.22 789.68 271.7 791 270.38 792.52 270.38 794.13 270.38 795.36 271.7 795.36 273.22 795.36 274.73 794.04 276.06 792.52 276.06Z" fill="#231f20" opacity="1" stroke-width="4" stroke="none"></path><path d="M776.79 325.99C770.44 325.14 765.42 323.72 765.42 323.72" stroke="#030202" stroke-width="4" stroke-linecap="round" stroke-linejoin="round" opacity="1" fill="none"></path><path d="M761.73 297.95L753.2 294.16" stroke="#030202" stroke-width="4" stroke-linecap="round" stroke-linejoin="round" opacity="1" fill="none"></path><path d="M689.25 446.7L702.04 503.54H797.26" stroke="#686868" stroke-width="4" stroke-linecap="round" stroke-linejoin="round" opacity="1" fill="none"></path><path d="M681.2 479.86L695.6 475.12" stroke="#686868" stroke-width="4" stroke-linecap="round" stroke-linejoin="round" opacity="1" fill="none"></path><path d="M811.37 444.9C804.36 438.17 797.73 430.59 797.73 430.59" stroke="#686868" stroke-width="4" stroke-linecap="round" stroke-linejoin="round" opacity="1" fill="none"></path><path d="M870.59 401.31V417.8" stroke="#686868" stroke-width="4" stroke-linecap="round" stroke-linejoin="round" opacity="1" fill="none"></path><path d="M902.99 366.73L947.9 401.88" stroke="#686868" stroke-width="4" stroke-linecap="round" stroke-linejoin="round" opacity="1" fill="none"></path><path d="M776.92 894.56L758.89 896.73" stroke="#808080" stroke-width="4" stroke-linecap="round" stroke-linejoin="round" opacity="1" fill="none"></path><path d="M780.76 907.86L766.84 917.77" stroke="#808080" stroke-width="4" stroke-linecap="round" stroke-linejoin="round" opacity="1" fill="none"></path><path d="M587.89 869.41L568.45 864.52" stroke="#808080" stroke-width="4" stroke-linecap="round" stroke-linejoin="round" opacity="1" fill="none"></path><path d="M584.21 888.29L564.66 886.31" stroke="#808080" stroke-width="4" stroke-linecap="round" stroke-linejoin="round" opacity="1" fill="none"></path><path d="M690.57 851.26H778.69" stroke="#808080" stroke-width="4" stroke-linecap="round" stroke-linejoin="round" opacity="1" fill="none"></path><path d="M602.37 840.27L520.03 800.95" stroke="#808080" stroke-width="4" stroke-linecap="round" stroke-linejoin="round" opacity="1" fill="none"></path><path d="M983.9 327.79C977.94 327.51 972.06 328.26 966.38 330.16" stroke="#030202" stroke-width="4" stroke-linecap="round" stroke-linejoin="round" opacity="1" fill="none"></path><path d="M988.83 340.3C981.54 338.69 971.11 342.48 971.11 342.48" stroke="#030202" stroke-width="4" stroke-linecap="round" stroke-linejoin="round" opacity="1" fill="none"></path><path d="M991.3 353.94C983.43 352.9 974.9 355.74 974.9 355.74" stroke="#030202" stroke-width="4" stroke-linecap="round" stroke-linejoin="round" opacity="1" fill="none"></path></g><g><path d="M275.9 846.9C298.36 846.9 316.57 828.69 316.57 806.23 316.57 783.78 298.36 765.57 275.9 765.57 253.45 765.57 235.24 783.78 235.24 806.23 235.24 828.69 253.45 846.9 275.9 846.9Z" fill="#ffbe32" opacity="1" stroke-width="4" stroke="none"></path></g><g><path d="M297.9 890L355 998C355.9 998.7 358.1 998.7 358.6 997.9L475.5 821.1C475.8 820.6 475.3 820 474.8 820.2L299.3 886.2C298.5 886.4 296.8 888.2 297.9 890Z" fill="#ffcaa0" opacity="1" stroke-width="4" stroke="none"></path><path d="M298.7 888.4L356.1 997C356.5 997.7 355.7 998.5 355 998L286.5 954.3 297.5 888.6C297.6 888 298.4 887.8 298.7 888.4Z" fill="#23201f" opacity="1" stroke-width="4" stroke="none"></path></g><g><path d="M1364.92 606.73L1220.88 581.58 1277.51 716.12 1292.36 678.7 1335.62 713.25 1374.92 664.05 1331.66 629.5 1364.92 606.73Z" fill="#23201f" opacity="1" stroke-width="4" stroke="none"></path></g></svg>