<svg xmlns="http://www.w3.org/2000/svg" height="1200" width="1600" version="1.1" xmlns:xlink="http://www.w3.org/1999/xlink" xmlns:svgjs="http://svgjs.com/svgjs"><rect fill="#a8cbff" width="1600" height="1200"></rect><g><path d="M844.62 249.09L877.28 256.97 849.55 275.77 859.19 307.96 828.87 293.28 805.84 317.72 803.37 284.23 770.7 276.47 798.55 257.55 788.92 225.47 819.12 240.04 842.27 215.6 844.62 249.09Z" fill="#ffffff" opacity="1" stroke-width="4" stroke="none"></path></g><g><path d="M207.96 343.24L183.15 287.27 185.14 346.15 135.99 345 180.24 371.49 156.89 419.87 198.54 385.5 224.19 429.44 218.14 379.22 268.67 380.44 221.82 355.64 251.21 312.38 207.96 343.24Z" fill="#ff3838" opacity="1" stroke-width="4" stroke="none"></path></g><g><path d="M1329.43 748.69L1351.11 705.52 1351.89 751.41 1421.81 741.87 1359.03 771.34 1394.67 808.54 1346.5 791.73 1331.25 840.55 1325.92 789.59 1272.56 801.53 1313.98 766.54 1286.71 726.16 1329.43 748.69Z" fill="#ffffff" opacity="1" stroke-width="4" stroke="none"></path></g><g><path d="M155.1 1048.47V1048.32C155.1 990.47 182.9 962.67 199.57 946.08 202.93 942.72 205.77 939.88 208.01 937.19 221.32 921.34 222.44 917.76 236.86 873.88L239.11 867.16C250.09 833.6 260.7 812.38 266.01 802.66 266.61 801.69 267.43 800.94 268.48 800.49 269 800.27 269.6 800.19 270.12 800.19H270.2C272.21 800.19 273.93 801.39 274.68 803.18L284.25 827.25C284.25 827.32 284.32 827.4 284.4 827.4 293.96 828.67 302.71 836.07 303.9 837.19 303.98 837.26 304.05 837.26 304.13 837.26L336.26 829.64C336.34 829.57 336.41 829.57 336.56 829.57 336.86 829.49 337.16 829.49 337.38 829.49 337.46 829.49 337.53 829.49 337.61 829.49 340.15 829.49 342.39 831.28 342.92 833.75 344.11 840.25 343.36 853.56 333.35 862 331.41 863.57 329.39 864.99 327.3 866.26 319.75 871.12 310.33 877.25 310.33 888.31V1029.49C310.33 1029.64 310.4 1029.71 310.55 1029.71 318.48 1029.86 324.83 1036.44 324.83 1044.36V1048.25C324.83 1048.4 324.75 1048.47 324.6 1048.47H155.1Z" fill="#ffffff" opacity="1" stroke-width="4" stroke="none"></path><path d="M306.44 946.53C289.78 946.45 276.25 932.78 276.25 916.11V897.8H310.33V946.53H306.44Z" fill="#ffffff" opacity="1" stroke-width="4" stroke="none"></path><path d="M280.88 1047.72V1044.51C280.88 1037.19 274.9 1031.21 267.58 1031.21H264.96L260.18 991.97C258.01 973.96 242.77 960.43 224.61 960.51" stroke="#808080" stroke-width="4" stroke-linecap="round" stroke-linejoin="round" opacity="1" fill="none"></path><path d="M295.53 848.4C297.27 848.4 298.67 846.99 298.67 845.26 298.67 843.53 297.27 842.12 295.53 842.12 293.8 842.12 292.39 843.53 292.39 845.26 292.39 846.99 293.8 848.4 295.53 848.4Z" fill="#231f20" opacity="1" stroke-width="4" stroke="none"></path><path d="M329.84 831.43C329.76 831.28 329.84 831.21 329.99 831.14 331.41 830.76 336.86 829.19 337.68 829.34 345.01 829.34 343.66 838.98 343.36 840.55 343.36 840.63 343.21 840.7 343.14 840.7 335.59 840.63 331.7 836.96 329.84 831.43Z" fill="#808080" opacity="1" stroke-width="4" stroke="none"></path><path d="M225.2 908.11C227.3 900.49 229.09 895.56 231.48 890.18 231.48 890.1 231.56 890.03 231.71 890.03 235.22 890.03 305.85 890.03 310.18 890.03 310.33 890.03 310.4 890.1 310.4 890.25V908.11C310.4 908.26 310.33 908.34 310.18 908.34H225.5C225.28 908.34 225.2 908.26 225.2 908.11Z" fill="#808080" opacity="1" stroke-width="4" stroke="none"></path><path d="M281.11 1048.47C280.96 1048.47 280.88 1048.4 280.88 1048.25V1044.88C280.88 1037.11 276.03 1031.28 268.25 1031.28L265.19 1031.21C265.11 1031.21 264.96 1031.13 264.96 1031.06L259.73 989.2C258.84 981.36 252.86 974.63 247.55 968.73L246.8 968.13C258.24 971.04 276.62 980.83 278.04 992.49L282.68 1029.41C282.68 1029.49 282.75 1029.56 282.9 1029.56H288.21C293.96 1029.56 298.82 1034.05 299.12 1039.88L299.72 1048.17C299.72 1048.32 299.64 1048.4 299.49 1048.4L282.45 1048.47H281.11Z" fill="#808080" opacity="0.2" stroke-width="4" stroke="none"></path></g><g><path d="M325.55 37.33V131.47" stroke="#d07fb2" stroke-width="4" stroke-linecap="round" stroke-linejoin="round" opacity="1" fill="none"></path><path d="M325.55 237.45C338.67 237.45 349.31 226.81 349.31 213.69 349.31 200.56 338.67 189.93 325.55 189.93 312.42 189.93 301.78 200.56 301.78 213.69 301.78 226.81 312.42 237.45 325.55 237.45Z" fill="#ffffff" opacity="1" stroke-width="4" stroke="none"></path><path d="M381.44 184.63L366.28 176.35C355.77 170.63 348.32 160.7 345.75 149.02L343.43 138.51C341.28 128.66 331.51 122.36 321.66 124.6 314.7 126.17 309.24 131.55 307.75 138.51L305.43 149.02C302.86 160.7 295.33 170.63 284.89 176.35L269.74 184.63C258.65 190.67 251.11 201.6 249.54 214.1H401.8C400.06 201.68 392.53 190.67 381.44 184.63Z" fill="#ffa0dc" opacity="1" stroke-width="4" stroke="none"></path><path d="M262.13 189.93H388.89" stroke="#d07fb2" stroke-width="4" stroke-linecap="round" stroke-linejoin="round" opacity="1" fill="none"></path><path d="M321.57 124.6C314.62 126.17 309.15 131.55 307.66 138.51L305.35 149.02C302.78 160.7 295.24 170.63 284.81 176.35L269.66 184.63C258.57 190.67 251.03 201.6 249.46 214.1H290.77C293.67 181.73 325.55 187.61 325.55 157.72 325.55 139.92 325.55 124.1 325.55 124.1 324.22 124.19 322.9 124.27 321.57 124.6Z" fill="#d07fb2" opacity="0.3" stroke-width="4" stroke="none"></path></g><g><path d="M1323.91 673.09H252.82V646.2H1323.91V673.09Z" fill="#3c2c5b" opacity="1" stroke-width="4" stroke="none"></path></g><g><path d="M951.74 461.21L951.69 81.87 1331.03 81.82 1331.08 461.21H951.74Z" fill="#ffffff" opacity="1" stroke-width="4" stroke="none"></path><path d="M993.54 419.39L1289.26 419.34 1289.21 123.64 993.54 123.69V419.39Z" fill="#ffffff" opacity="1" stroke-width="4" stroke="none"></path><path d="M1122.79 246.35C1105.46 260.14 1079.81 183.13 1119.31 162.66 1170.04 136.38 1189.12 255.08 1159.56 246.85 1128.23 238.15 1231.93 163.53 1248.22 217.31 1261.3 260.44 1177.32 304.47 1174.33 278.05 1173 266.15 1200.27 255.08 1216.46 307.29 1232.65 359.51 1214.45 382.61 1187.48 378.22 1160.51 373.82 1113.6 291.18 1145.71 292.62 1172.01 293.79 1098.93 391.35 1067.7 356.87 1030.3 315.54 1118.73 254.49 1115.9 281.36 1113.91 300.11 1039.43 298.45 1042.27 237.92 1044.69 184.33 1146.58 227.44 1122.79 246.35Z" stroke="#7c7c7c" stroke-width="4" stroke-linecap="round" opacity="1" fill="none"></path></g><g><path d="M865.29 645.94L878.91 568.54 964.01 568.52 952.95 631.26C952.23 635.39 950.09 639.13 946.89 641.83 943.68 644.52 939.62 645.98 935.42 645.94H865.29Z" fill="#ff4f32" opacity="1" stroke-width="4" stroke="none"></path><path d="M873 602.42L878.99 568.54 964.09 568.52 954.25 624.51 873 602.42Z" fill="#1d0c09" opacity="0.3" stroke-width="4" stroke="none"></path><path d="M791.4 597.72C787.12 597.84 782.87 597.01 778.97 595.28 775.06 593.56 771.58 590.97 768.78 587.74 766.01 584.32 764.03 580.33 763 576.05 761.97 571.77 761.9 567.3 762.8 562.99L791.18 402.05C794.56 382.91 812.88 367.34 832.01 367.34H1076.16C1080.44 367.22 1084.68 368.05 1088.59 369.78 1092.5 371.5 1095.98 374.08 1098.78 377.32 1101.55 380.74 1103.53 384.73 1104.56 389.01 1105.59 393.29 1105.66 397.74 1104.76 402.05L1076.38 563.01C1072.98 582.15 1054.66 597.72 1035.54 597.72H791.4Z" fill="#ff4f32" opacity="1" stroke-width="4" stroke="none"></path><path d="M787.73 530.31L809.99 404.12C810.94 399.4 813.46 395.12 817.13 392.01 820.8 388.88 825.42 387.08 830.22 386.9H1071.08C1073.22 386.83 1075.33 387.25 1077.28 388.12 1079.22 388.98 1080.95 390.26 1082.33 391.87 1083.72 393.56 1084.68 395.54 1085.21 397.67 1085.72 399.79 1085.75 401.99 1085.31 404.13L1063.02 530.31H787.73Z" fill="#f7e8e5" opacity="1" stroke-width="4" stroke="none"></path><path d="M916.86 578.2C915.07 578.26 913.28 577.93 911.62 577.2 909.98 576.49 908.51 575.41 907.32 574.05 906.16 572.7 905.29 571.09 904.82 569.35 904.33 567.61 904.26 565.8 904.58 564.02 905.26 559.81 907.39 555.97 910.59 553.14 913.79 550.32 917.86 548.7 922.14 548.54 923.87 548.51 925.59 548.83 927.2 549.49 928.81 550.17 930.24 551.17 931.45 552.43 936.5 557.95 935.25 567.34 928.65 573.38 925.46 576.37 921.26 578.1 916.86 578.2V578.2Z" fill="#1d0c09" opacity="1" stroke-width="4" stroke="none"></path><path d="M873.56 597.84H958.65" stroke="#1d0c09" stroke-width="4" stroke-linecap="round" stroke-linejoin="round" opacity="1" fill="none"></path><path d="M867.83 632.04H952.91" stroke="#1d0c09" stroke-width="4" stroke-linecap="round" stroke-linejoin="round" opacity="1" fill="none"></path><path d="M835.69 645.94L835.84 645.25C836.51 641.43 838.53 637.96 841.5 635.47 844.48 632.97 848.24 631.6 852.13 631.6H952.91C952.2 635.63 950.1 639.26 946.97 641.88 943.84 644.51 939.89 645.94 935.81 645.94H835.69Z" fill="#ff4f32" opacity="1" stroke-width="4" stroke="none"></path></g><g><path d="M265.96 646.42H439.3L420.4 501.49H284.86L265.96 646.42Z" fill="#ffa0dc" opacity="1" stroke-width="4" stroke="none"></path><path d="M381.23 634.57C390.42 634.57 397.87 627.12 397.87 617.92 397.87 608.73 390.42 601.28 381.23 601.28 372.03 601.28 364.58 608.73 364.58 617.92 364.58 627.12 372.03 634.57 381.23 634.57Z" fill="#ffc930" opacity="1" stroke-width="4" stroke="none"></path><path d="M368.4 583.84C377.59 583.84 385.05 576.39 385.05 567.2 385.05 558 377.59 550.55 368.4 550.55 359.2 550.55 351.75 558 351.75 567.2 351.75 576.39 359.2 583.84 368.4 583.84Z" fill="#ffc930" opacity="1" stroke-width="4" stroke="none"></path><path d="M299.06 586.68C299.06 577.48 291.62 570.04 282.41 570.04 280.16 570.04 277.91 570.53 275.76 571.41L272.03 599.81C279.28 605.49 289.76 604.31 295.44 597.07 297.79 594.13 299.06 590.41 299.06 586.68Z" fill="#ffc930" opacity="1" stroke-width="4" stroke="none"></path><path d="M320.12 623.51C310.91 623.51 303.47 630.95 303.47 640.15 303.47 642.31 303.86 644.46 304.74 646.42H335.49C338.92 637.9 334.81 628.21 326.29 624.68 324.33 623.9 322.27 623.51 320.12 623.51Z" fill="#ffc930" opacity="1" stroke-width="4" stroke="none"></path><path d="M391.12 516.66C399.74 516.66 406.88 510.1 407.67 501.49H374.47C375.35 510.1 382.5 516.66 391.12 516.66Z" fill="#ffc930" opacity="1" stroke-width="4" stroke="none"></path><path d="M415.21 576.7C415.21 585.9 422.65 593.34 431.86 593.34 432.05 593.34 432.15 593.34 432.35 593.34L428.04 560.44C420.5 562.2 415.21 568.96 415.21 576.7Z" fill="#ffc930" opacity="1" stroke-width="4" stroke="none"></path><path d="M317.28 546.92C326.47 546.92 333.93 539.47 333.93 530.28 333.93 521.08 326.47 513.63 317.28 513.63 308.08 513.63 300.63 521.08 300.63 530.28 300.63 539.47 308.08 546.92 317.28 546.92Z" fill="#ffc930" opacity="1" stroke-width="4" stroke="none"></path><path d="M324.43 529.89V542.22C324.43 557.89 337.16 570.62 352.83 570.62 368.5 570.62 381.23 557.89 381.23 542.22V529.89" stroke="#535353" stroke-width="4" stroke-linecap="round" stroke-linejoin="round" opacity="1" fill="none"></path></g><g><path d="M931.64 518.23C958.66 518.23 982.76 496.32 985.47 469.3 988.18 442.28 968.48 420.37 941.46 420.37 914.44 420.37 890.33 442.28 887.62 469.3 884.91 496.32 904.62 518.23 931.64 518.23Z" fill="#ffc930" opacity="0.2" stroke-width="4" stroke="none"></path><path d="M947.1 487.1H953.12" stroke="#23211f" stroke-width="4" stroke-linecap="round" stroke-linejoin="round" opacity="1" fill="none"></path><path d="M932.75 507.13C959.77 507.13 983.88 485.22 986.59 458.2 989.3 431.18 969.59 409.27 942.57 409.27 915.55 409.27 891.45 431.18 888.73 458.2 886.02 485.22 905.73 507.13 932.75 507.13Z" fill="#ffa0dc" opacity="1" stroke-width="4" stroke="none"></path><path d="M953.54 487.57L954.01 482.92 926.48 482.88 925.96 488H916.78C909.82 488 903.82 492.1 901.08 494.32 919.19 512.55 950.24 511.14 970.47 491.2 970.75 490.9 971.08 490.6 971.37 490.31 968.9 488.55 965.88 487.62 962.68 487.53L953.54 487.57Z" fill="#ff3838" opacity="1" stroke-width="4" stroke="none"></path><path d="M914.53 460.63C916.01 455.68 916.58 449.58 917.99 444.07 918.96 440.31 920.29 436.85 922.6 434.29 928.27 428.02 942.04 425.58 952.09 433.52 962.14 441.46 960.46 452.65 959.53 457.69L954.8 474.64 954 483.05H926.46L926.87 478.48C926.87 478.48 920.73 479.76 917.43 477.33 912.97 474.04 912.03 468.96 914.53 460.63Z" fill="#ac704e" opacity="1" stroke-width="4" stroke="none"></path><path d="M922.6 434.29C928.27 428.02 943 424.09 953.05 432.03 963.1 439.97 960.46 452.65 959.53 457.69L954.8 474.64C954.8 474.64 946.9 472.08 944.09 465.59 944.09 465.59 956.45 460.29 951.83 452.69 947.4 445.39 937.49 454.4 937.49 454.4 932.49 452.69 928.06 445.35 928.06 445.35 920.29 445.78 917.99 444.03 917.99 444.03 918.96 440.31 920.29 436.85 922.6 434.29Z" fill="#000000" opacity="1" stroke-width="4" stroke="none"></path><path d="M928.07 458.03C928.8 458.03 929.46 457.44 929.53 456.71 929.6 455.98 929.07 455.38 928.34 455.38 927.61 455.38 926.95 455.98 926.88 456.71 926.81 457.44 927.34 458.03 928.07 458.03Z" fill="#000000" opacity="1" stroke-width="4" stroke="none"></path><path d="M918.73 457.13C919.46 457.13 920.11 456.54 920.18 455.81 920.26 455.08 919.72 454.49 918.99 454.49 918.26 454.49 917.61 455.08 917.54 455.81 917.46 456.54 917.99 457.13 918.73 457.13Z" fill="#000000" opacity="1" stroke-width="4" stroke="none"></path><path d="M921.28 460.21C920.99 460.93 920.8 461.57 920.9 461.83 921.08 462.21 921.39 462.55 921.75 462.77" stroke="#23211f" stroke-width="4" stroke-linecap="round" stroke-linejoin="round" opacity="1" fill="none"></path><path d="M925.05 466.48C924.16 467.25 922.97 467.59 921.89 467.34" stroke="#23211f" stroke-width="4" stroke-linecap="round" stroke-linejoin="round" opacity="1" fill="none"></path><path d="M932.23 477.41C930.63 478.09 928.55 477.97 926.87 478.48" stroke="#23211f" stroke-width="4" stroke-linecap="round" stroke-linejoin="round" opacity="1" fill="none"></path><path d="M944.91 457.43L941.71 459.57" stroke="#23211f" stroke-width="4" stroke-linecap="round" stroke-linejoin="round" opacity="1" fill="none"></path></g><g><path d="M846.12 954.69C844.89 946.66 851.47 940.63 859.73 940.63 859.39 940.41 871.22 941.75 885.83 938.4L885.94 938.29C884.6 924.35 884.72 909.4 884.72 896.23 885.39 895.56 778.62 895.67 779.29 896.23 781.07 919.66 783.97 942.98 788.33 964.96 788.33 964.96 788.33 965.07 788.44 965.07 790 965.07 791.9 964.96 793.46 964.96 829.83 964.96 849.46 978.01 849.8 978.12L850.35 978.57 846.12 954.69Z" fill="#a8604a" opacity="1" stroke-width="4" stroke="none"></path><path d="M855.04 896.68C823.24 885.41 783.3 896.57 779.29 896.68 779.18 896.68 779.18 896.68 779.18 896.79 779.85 906.83 781.07 916.43 782.19 926.91 782.19 927.02 782.3 927.02 782.3 927.02 785.98 925.91 850.69 905.49 855.04 896.79 855.15 896.68 855.15 896.68 855.04 896.68Z" fill="#000000" opacity="0.2" stroke-width="4" stroke="none"></path><path d="M694.72 954.02C693.5 945.99 699.86 938.29 708.11 938.4 708.11 938.4 738.57 938.4 740.46 938.4 740.58 938.4 740.58 938.4 740.58 938.29 740.91 924.35 742.7 908.62 744.15 896.23 744.82 895.23 636.71 896.23 636.71 895.9 636.93 918.43 638.16 942.2 642.51 964.4L642.62 964.51C678.66 964.51 698.07 977.56 698.4 977.67L698.96 978.12 694.72 954.02Z" fill="#a8604a" opacity="1" stroke-width="4" stroke="none"></path><path d="M713.02 896.34C706.55 895.12 644.3 894.22 636.71 896.57L636.6 896.68C636.82 907.61 636.93 916.98 637.71 927.02 637.71 927.14 637.83 927.14 637.83 927.14 641.51 926.35 707 899.24 713.02 896.57 713.24 896.46 713.13 896.34 713.02 896.34Z" fill="#000000" opacity="0.2" stroke-width="4" stroke="none"></path><path d="M884.6 896.68C884.6 843.35 890.74 761.35 871.44 729 833.84 663.29 715.14 635.4 714.8 634.39L571.45 631.27 568.32 634.73C568.32 634.73 541.88 661.17 534.96 708.58 528.72 751.98 562.86 790.69 606.59 790.69H640.5C637.16 808.66 635.48 844.8 636.71 896.57L884.6 896.68Z" fill="#ffc930" opacity="1" stroke-width="4" stroke="none"></path><path d="M640.28 790.58C640.28 790.47 640.28 790.47 640.28 790.58H670.18C670.74 790.58 671.07 791.25 670.74 791.7 654.45 813.9 641.17 842.79 637.04 852.39 636.71 853.06 635.71 852.83 635.71 852.05 636.6 823.72 636.26 802.74 640.28 790.58Z" fill="#1b1b1b" opacity="0.2" stroke-width="4" stroke="none"></path><path d="M792.79 1032.23C793.35 1032.12 793.57 1031.56 793.35 1031.11 788.44 1021.52 781.74 1016.16 773.26 1008.91 747.94 987.27 739.24 977.79 740.58 935.61 740.58 935.5 740.58 935.5 740.46 935.5 738.34 935.61 708.22 937.62 708.22 937.62 699.63 937.96 692.6 945.32 693.94 954.02 693.94 954.02 696.51 969.86 697.29 975.22 697.4 975.89 696.62 976.45 696.06 976 690.37 972.54 671.96 963.06 642.62 962.72 642.07 962.72 641.73 963.17 641.84 963.62 643.96 976.45 645.64 989.72 649.09 1002.89 649.21 1003.11 649.43 1003.33 649.65 1003.45L696.51 1017.95C696.84 1018.06 697.18 1017.95 697.4 1017.73L697.74 1017.39C697.96 1017.06 698.4 1016.94 698.85 1017.28 705.1 1021.41 715.14 1030.78 716.37 1031.89 716.48 1032.01 716.59 1032.01 716.7 1032.01 719.49 1032.79 753.74 1040.37 756.53 1040.93 756.64 1040.93 756.75 1040.93 756.86 1040.93 759.21 1040.48 787.1 1033.57 792.79 1032.23Z" fill="#ff3838" opacity="1" stroke-width="4" stroke="none"></path><path d="M944.07 1031.78C944.18 1031.78 944.18 1031.67 944.18 1031.67 939.27 1021.07 933.02 1016.39 923.54 1008.58 897.32 988.72 889.07 978.9 885.94 938.63 885.94 938.52 885.94 938.52 885.83 938.52 883.94 938.4 855.82 938.4 856.49 938.52 849.02 939.85 843.88 946.99 845 954.47L848.68 977.12C848.68 977.23 848.57 977.34 848.46 977.23 845.33 974.77 819.56 963.06 789.66 964.4 789.55 964.51 788.44 964.96 788.21 965.18 788.21 965.18 788.1 965.29 788.21 965.29 790.67 978.34 792.9 990.95 796.36 1003.78 796.36 1003.78 796.36 1003.89 796.47 1003.89L846.23 1017.28 846.67 1016.83C853.7 1021.3 859.61 1026.32 864.3 1031.89 865.19 1032.23 909.82 1040.04 910.71 1040.15L944.07 1031.78Z" fill="#ff3838" opacity="1" stroke-width="4" stroke="none"></path><path d="M699.07 1048.74L698.18 1017.06V1016.94C677.99 1004.23 652.66 1003.78 649.43 1003.45 649.32 1003.45 649.32 1003.56 649.32 1003.56 649.99 1005.9 658.24 1034.35 663.04 1048.29L663.15 1048.41 699.07 1048.74Z" fill="#000000" opacity="1" stroke-width="4" stroke="none"></path><path d="M847.34 1048.29L846.56 1016.72C846.56 1016.72 846.56 1016.61 846.45 1016.61 825.7 1005.45 799.82 1003.45 796.47 1003.11 796.25 1003.11 796.13 1003.33 796.13 1003.45 797.14 1006.9 809.08 1043.61 810.64 1048.07 810.75 1048.29 810.97 1048.52 811.31 1048.52 811.31 1048.52 844.89 1048.41 847.23 1048.41 847.34 1048.41 847.34 1048.41 847.34 1048.29Z" fill="#000000" opacity="1" stroke-width="4" stroke="none"></path><path d="M747.27 981.36L727.3 990.06" stroke="#000000" stroke-width="4" stroke-linecap="round" stroke-linejoin="round" opacity="1" fill="none"></path><path d="M895.98 980.91L875.9 990.06" stroke="#000000" stroke-width="4" stroke-linecap="round" stroke-linejoin="round" opacity="1" fill="none"></path><path d="M639.61 790.69L670.18 790.58" stroke="#1b1b1b" stroke-width="4" stroke-linecap="round" stroke-linejoin="round" opacity="1" fill="none"></path><path d="M947.86 1048.52C947.97 1042.6 946.75 1036.8 944.29 1031.78L944.18 1031.67H864.52C864.41 1031.67 864.41 1031.78 864.41 1031.89 869.32 1037.25 872.89 1042.05 876.68 1048.52 876.68 1048.52 876.68 1048.52 876.8 1048.52 879.47 1048.52 944.74 1048.63 947.86 1048.63 947.86 1048.63 947.86 1048.63 947.86 1048.52Z" fill="#000000" opacity="1" stroke-width="4" stroke="none"></path><path d="M797.7 1048.07C797.47 1042.72 797.03 1036.47 793.79 1032.01 793.79 1032.01 793.79 1032.01 793.68 1032.01 788.1 1032.01 722.61 1031.89 716.37 1031.89 716.26 1031.89 716.26 1032.01 716.26 1032.12 720.27 1037.25 725.07 1042.72 728.64 1048.74 728.64 1048.74 728.64 1048.74 728.75 1048.74 732.65 1048.74 793.12 1048.18 797.58 1048.18 797.7 1048.18 797.7 1048.18 797.7 1048.07Z" fill="#000000" opacity="1" stroke-width="4" stroke="none"></path><path d="M699.74 436.59L699.52 420.19C699.52 420.08 699.63 420.08 699.63 420.08 710.57 422.2 725.96 421.53 734.44 410.93 742.14 401.23 740.8 386.16 737.23 365.19 734.22 348.79 734.66 323.8 724.85 310.52 713.8 294.79 693.27 291.67 670.29 292.56 643.74 294.01 623.77 317.22 624.44 342.65 624.88 354.48 625.44 376.68 627.12 404.57 627.67 412.72 629.01 439.83 629.12 441.72 629.12 441.83 629.24 441.83 629.24 441.83L699.52 436.7C699.52 436.7 699.74 436.7 699.74 436.59Z" fill="#a8604a" opacity="1" stroke-width="4" stroke="none"></path><path d="M699.52 420.08L699.74 436.48C699.74 436.59 699.63 436.59 699.52 436.59L678.77 413.39C678.66 413.27 678.77 413.16 678.88 413.16 689.48 418.07 698.52 419.74 699.52 420.08 699.52 419.97 699.52 419.97 699.52 420.08Z" fill="#000000" opacity="0.2" stroke-width="4" stroke="none"></path><path d="M662.59 386.39L653.11 382.59" stroke="#000000" stroke-width="4" stroke-linecap="round" stroke-linejoin="round" opacity="1" fill="none"></path><path d="M698.85 419.97C693.72 418.74 684.46 415.84 678.44 412.83" stroke="#000000" stroke-width="4" stroke-linecap="round" stroke-linejoin="round" opacity="1" fill="none"></path><path d="M711.79 371.1L712.57 373.78C713.13 375.34 712.57 376.9 711.46 377.91L711.12 378.24" stroke="#000000" stroke-width="4" stroke-linecap="round" stroke-linejoin="round" opacity="1" fill="none"></path><path d="M714.92 390.18C713.13 391.52 706.88 391.52 703.65 387.5" stroke="#000000" stroke-width="4" stroke-linecap="round" stroke-linejoin="round" opacity="1" fill="none"></path><path d="M693.38 363.85C689.26 363.96 689.26 369.99 693.38 370.1 697.51 369.99 697.51 363.96 693.38 363.85Z" fill="#010005" opacity="1" stroke-width="4" stroke="none"></path><path d="M723.28 358.94C719.16 359.05 719.16 365.08 723.28 365.19 727.41 365.08 727.41 359.05 723.28 358.94Z" fill="#010005" opacity="1" stroke-width="4" stroke="none"></path><path d="M903.91 556.97C906.58 557.86 909.26 558.31 912.05 558.31 926.22 558.31 940.27 547.37 941.39 546.48 943.84 546.15 978.76 541.13 982.89 535.21 985.23 530.19 974.75 529.41 970.29 529.08 970.17 529.08 970.17 528.85 970.29 528.85 987.91 523.83 994.05 517.7 995.94 513.46 997.51 510.33 996.73 507.88 996.5 507.21V507.1C1003.42 499.18 998.85 494.05 991.93 493.27 991.82 493.27 991.82 493.15 991.82 493.15 992.6 488.58 987.91 485.57 979.99 485.57 968.95 485.68 951.77 488.36 939.05 490.59 938.94 490.59 938.94 490.48 938.94 490.36 950.09 478.09 952.44 469.73 937.49 473.74 923.32 477.42 888.17 492.37 860.51 504.53 860.4 504.53 860.4 504.64 860.51 504.64L893.64 566.12C893.53 566.23 900 560.65 903.91 556.97Z" fill="#a8604a" opacity="1" stroke-width="4" stroke="none"></path><path d="M576.69 654.36C598.11 654.36 623.21 647.56 649.32 634.73H714.58C714.58 634.73 714.69 634.73 714.69 634.62L723.4 585.75C723.4 585.64 723.51 585.64 723.62 585.75 768.69 646.44 841.09 616.1 893.53 566.23V566.12C892.41 563.88 863.07 506.65 861.85 504.09 861.85 504.09 861.73 503.98 861.73 504.09 826.37 520.49 794.8 534.1 792.34 535.1 792.34 535.1 792.23 535.1 792.23 534.99 758.87 471.96 735.67 448.64 699.97 442.95L600.9 442.95C556.83 434.47 516 522.83 517.45 601.93 517.9 636.4 542.66 654.59 576.69 654.36Z" fill="#ff3838" opacity="1" stroke-width="4" stroke="none"></path><path d="M758.09 613.53C757.98 613.42 751.96 603.71 747.83 588.09 746.04 581.4 744.59 575.04 743.25 569.35 739.57 553.17 737.12 541.46 729.53 540.68 729.53 540.68 729.53 540.68 729.42 540.68 728.64 541.68 723.17 584.86 722.95 584.86L722.84 585.42C722.95 585.64 735.56 603.94 757.76 613.87L758.43 614.2 758.09 613.53Z" fill="#000000" opacity="0.2" stroke-width="4" stroke="none"></path><path d="M623.43 426.88C623.43 426.77 623.43 426.77 623.43 426.88L699.52 427.11C699.63 427.11 699.63 427.11 699.63 427.22L699.86 442.84C699.86 442.95 699.86 442.95 699.74 442.95 698.85 442.95 692.83 443.28 684.91 443.28 684.79 443.28 684.79 443.4 684.79 443.51 701.42 454.55 708 473.3 701.86 493.49 701.86 493.6 701.75 493.6 701.75 493.6 700.41 493.27 684.91 489.58 678.32 470.17 678.32 470.06 678.1 470.06 678.1 470.17 674.42 485.46 663.93 498.29 647.64 506.09 647.53 506.09 647.53 506.09 647.53 505.98 646.97 503.31 639.39 463.14 669.73 443.4 669.84 443.28 669.84 443.17 669.73 443.17 649.21 443.06 625.22 443.06 623.55 442.73 623.55 442.73 623.55 442.62 623.43 442.62 623.55 439.38 623.55 432.46 623.43 426.88Z" fill="#3c2c5b" opacity="1" stroke-width="4" stroke="none"></path><path d="M637.83 600.37C624.88 600.7 624.88 619.67 637.83 620 650.77 619.67 650.77 600.7 637.83 600.37Z" fill="#e1e1e1" opacity="1" stroke-width="4" stroke="none"></path><path d="M860.62 551.95C847.68 552.28 847.68 571.25 860.62 571.58 873.56 571.25 873.56 552.28 860.62 551.95Z" fill="#e1e1e1" opacity="1" stroke-width="4" stroke="none"></path><path d="M594.2 572.48L607.7 532.87" stroke="#000000" stroke-width="4" stroke-linecap="round" stroke-linejoin="round" opacity="1" fill="none"></path><path d="M714.02 634.5L720.72 597.47C720.72 597.35 720.61 597.35 720.61 597.35L670.96 621.79 648.54 634.17 648.65 634.62 714.02 634.5C714.02 634.62 714.02 634.62 714.02 634.5Z" fill="#000000" opacity="0.2" stroke-width="4" stroke="none"></path><path d="M791.45 534.99L804.73 529.63" stroke="#000000" stroke-width="4" stroke-linecap="round" stroke-linejoin="round" opacity="1" fill="none"></path><path d="M725.51 566.67L729.31 540.68" stroke="#000000" stroke-width="4" stroke-linecap="round" stroke-linejoin="round" opacity="1" fill="none"></path><path d="M938.16 491.15L926.89 503.86C926.89 503.86 919.08 528.63 900.45 537.44" stroke="#000000" stroke-width="4" stroke-linecap="round" stroke-linejoin="round" opacity="1" fill="none"></path><path d="M991.59 493.71L941.39 506.65" stroke="#000000" stroke-width="4" stroke-linecap="round" stroke-linejoin="round" opacity="1" fill="none"></path><path d="M996.28 507.32L945.07 519.82" stroke="#000000" stroke-width="4" stroke-linecap="round" stroke-linejoin="round" opacity="1" fill="none"></path><path d="M969.62 529.08L946.08 533.54" stroke="#000000" stroke-width="4" stroke-linecap="round" stroke-linejoin="round" opacity="1" fill="none"></path><path d="M637.38 564.55C620.2 555.18 623.21 531.75 607.82 532.87 607.82 532.87 607.7 532.87 607.7 532.98 607.15 534.77 594.32 572.14 593.42 574.59 593.42 574.71 593.42 574.71 593.54 574.71 596.21 574.48 633.59 565.56 637.38 564.89 637.49 564.78 637.49 564.67 637.38 564.55Z" fill="#000000" opacity="0.2" stroke-width="4" stroke="none"></path><path d="M743.37 632.27C746.04 632.27 748.5 631.27 748.5 628.59 748.27 623.01 734.66 613.75 727.08 608.96 726.97 608.84 727.08 608.73 727.19 608.73 735.67 612.53 752.74 619.22 764.12 619.22 770.25 619.22 774.16 617.21 775.27 613.2 775.38 613.2 775.61 613.2 775.83 613.2 783.64 613.42 787.77 608.06 781.97 599.47V599.36C782.3 598.69 783.42 596.13 782.64 592.67 776.95 576.16 718.37 559.2 685.8 559.2 677.43 559.2 666.94 559.87 656.9 561.54 656.79 561.54 656.79 561.65 656.79 561.65L671.07 622.01C671.07 622.01 671.07 622.12 671.18 622.12 671.74 622.23 674.53 622.68 678.99 622.68 685.91 622.9 697.62 620.89 706.1 615.65H706.21C709.45 617.44 732.65 632.27 743.37 632.27Z" fill="#a8604a" opacity="1" stroke-width="4" stroke="none"></path><path d="M659.02 561.32C630.46 564.55 580.93 578.05 580.93 578.05" stroke="#000000" stroke-width="4" stroke-linecap="round" stroke-linejoin="round" opacity="1" fill="none"></path><path d="M781.3 599.47C762.55 588.88 742.47 580.84 721.61 575.82" stroke="#000000" stroke-width="4" stroke-linecap="round" stroke-linejoin="round" opacity="1" fill="none"></path><path d="M774.49 613.08C758.76 605.16 727.19 592.89 718.15 590.55" stroke="#000000" stroke-width="4" stroke-linecap="round" stroke-linejoin="round" opacity="1" fill="none"></path><path d="M670.96 622.01C664.27 626.36 657.46 630.49 650.21 634.06" stroke="#000000" stroke-width="4" stroke-linecap="round" stroke-linejoin="round" opacity="1" fill="none"></path><path d="M678.32 469.61C680.67 458.46 679.1 448.19 677.99 443.28" stroke="#1c1c1c" stroke-width="4" stroke-linecap="round" stroke-linejoin="round" opacity="1" fill="none"></path><path d="M525.15 536.89C538.65 496.72 548.8 482.78 552.03 477.31 552.03 477.31 552.15 477.2 552.15 477.31 582.94 489.14 618.19 490.48 639.39 466.6 660.25 442.95 656.23 405.8 656.01 403.57 656.01 403.57 656.01 403.57 656.01 403.46 654.78 402.68 630.57 387.95 634.93 373.89 636.82 367.98 641.62 365.19 649.43 365.19 656.68 365.19 664.38 367.64 665.49 368.09 665.61 368.09 665.61 368.09 665.61 367.98 667.39 358.94 665.94 352.58 662.93 345.67 662.93 345.55 662.93 345.55 663.04 345.55 673.41 347.34 685.02 344.89 687.25 338.64 689.37 334.62 688.59 328.93 685.13 324.13 685.02 324.02 685.13 323.91 685.24 324.02 700.08 331.5 723.84 333.39 731.09 324.92V324.8C725.07 299.93 699.41 288.1 671.74 287.88 643.52 286.54 618.41 309.3 619.42 336.85 619.53 343.77 619.86 362.4 620.87 376.68 620.87 376.79 620.76 376.79 620.76 376.79 581.37 356.26 537.53 371.1 535.97 420.86 535.97 420.86 535.97 420.97 535.86 420.97 463.01 436.26 476.28 516.36 524.92 537 525.15 537 525.15 537 525.15 536.89Z" fill="#010005" opacity="1" stroke-width="4" stroke="none"></path><path d="M615.85 244.81C570.55 246.26 570.55 311.97 615.85 313.31 661.14 311.86 661.14 246.15 615.85 244.81Z" fill="#010005" opacity="1" stroke-width="4" stroke="none"></path></g><g><path d="M1215.63 593.57H1158.69C1158.46 577.82 1171.04 564.89 1186.79 564.66 1202.53 564.43 1215.46 577.02 1215.69 592.76 1215.63 592.99 1215.63 593.28 1215.63 593.57Z" fill="#ffffff" opacity="1" stroke-width="4" stroke="none"></path><path d="M1301.42 602.41H1310.96C1314.87 602.41 1318.09 605.57 1318.09 609.54 1318.09 613.45 1314.93 616.66 1310.96 616.66H1301.42C1297.52 616.66 1294.3 613.5 1294.3 609.54 1294.3 605.57 1297.52 602.41 1301.42 602.41Z" fill="#ffffff" opacity="1" stroke-width="4" stroke="none"></path><path d="M1275.51 645.8C1283.82 645.8 1290.56 639.06 1290.56 630.74 1290.56 622.43 1283.82 615.69 1275.51 615.69 1267.19 615.69 1260.45 622.43 1260.45 630.74 1260.45 639.06 1267.19 645.8 1275.51 645.8Z" fill="#ffc930" opacity="1" stroke-width="4" stroke="none"></path><path d="M1225.17 591.21H1147.54C1147.48 591.21 1147.48 591.21 1147.48 591.27V630.34C1147.48 630.4 1147.48 630.4 1147.54 630.4H1163.29C1163.34 630.4 1163.34 630.4 1163.34 630.34 1163.57 618.04 1173.69 608.28 1185.98 608.45 1197.99 608.62 1207.65 618.27 1207.93 630.34 1207.93 630.4 1207.93 630.4 1207.99 630.4H1225.17C1225.23 630.4 1225.23 630.4 1225.23 630.34L1225.17 591.21C1225.23 591.21 1225.23 591.21 1225.17 591.21Z" fill="#ffa0dc" opacity="1" stroke-width="4" stroke="none"></path><path d="M1225.23 591.21L1148.75 591.15C1148.58 591.15 1148.52 591.44 1148.69 591.5L1225.17 612.18 1225.23 591.21Z" fill="#d5d0d3" opacity="0.2" stroke-width="4" stroke="none"></path><path d="M1185.64 645.8C1193.95 645.8 1200.69 639.06 1200.69 630.74 1200.69 622.43 1193.95 615.69 1185.64 615.69 1177.32 615.69 1170.58 622.43 1170.58 630.74 1170.58 639.06 1177.32 645.8 1185.64 645.8Z" fill="#ffc930" opacity="1" stroke-width="4" stroke="none"></path><path d="M1185.64 635.22C1188.12 635.22 1190.12 633.22 1190.12 630.74 1190.12 628.27 1188.12 626.26 1185.64 626.26 1183.16 626.26 1181.16 628.27 1181.16 630.74 1181.16 633.22 1183.16 635.22 1185.64 635.22Z" fill="#ff3838" opacity="1" stroke-width="4" stroke="none"></path><path d="M1275.28 635.22C1277.75 635.22 1279.76 633.22 1279.76 630.74 1279.76 628.27 1277.75 626.26 1275.28 626.26 1272.8 626.26 1270.8 628.27 1270.8 630.74 1270.8 633.22 1272.8 635.22 1275.28 635.22Z" fill="#ff3838" opacity="1" stroke-width="4" stroke="none"></path><path d="M1299.41 588.45L1272.64 581.44 1272.58 581.38V563.69C1272.58 563.63 1272.58 563.63 1272.52 563.63H1225.23C1225.17 563.63 1225.17 563.63 1225.17 563.69V630.34C1225.17 630.4 1225.17 630.4 1225.23 630.4H1253.16C1253.21 630.4 1253.21 630.4 1253.21 630.34 1253.27 618.04 1263.21 608.1 1275.51 608.1 1287.8 608.1 1297.75 618.04 1297.8 630.34 1297.8 630.4 1297.8 630.4 1297.86 630.4H1309.87C1309.93 630.4 1309.93 630.4 1309.93 630.34V602.07C1309.93 595.69 1305.62 590.06 1299.41 588.45ZM1262.52 591.21H1235.34C1235.29 591.21 1235.29 591.21 1235.29 591.15V574.2C1235.29 574.14 1235.29 574.14 1235.34 574.14H1262.52C1262.58 574.14 1262.58 574.14 1262.58 574.2L1262.52 591.21C1262.58 591.21 1262.58 591.21 1262.52 591.21Z" fill="#ff3838" opacity="1" stroke-width="4" stroke="none"></path><path d="M1225.17 563.63H1272.58" stroke="#000000" stroke-width="4" stroke-linecap="round" stroke-linejoin="round" opacity="1" fill="none"></path><path d="M1225.23 591.15H1147.48" stroke="#1f1c1e" stroke-width="4" stroke-linecap="round" stroke-linejoin="round" opacity="1" fill="none"></path><path d="M1163.34 630.4H1147.48" stroke="#1f1c1e" stroke-width="4" stroke-linecap="round" stroke-linejoin="round" opacity="1" fill="none"></path><path d="M1253.21 630.4H1207.93" stroke="#000000" stroke-width="4" stroke-linecap="round" stroke-linejoin="round" opacity="1" fill="none"></path><path d="M1309.93 630.4H1297.8" stroke="#000000" stroke-width="4" stroke-linecap="round" stroke-linejoin="round" opacity="1" fill="none"></path></g><g><path d="M532.83 820.98H563.63V955.02H532.83V820.98Z" fill="#7d1c2f" opacity="1" stroke-width="4" stroke="none"></path><path d="M563.63 850.46V820.98H532.83V858.58L563.63 850.46Z" fill="#000000" opacity="0.3" stroke-width="4" stroke="none"></path><path d="M513.14 814.89H583.2V845.69H513.14V814.89Z" fill="#ff4f32" opacity="1" stroke-width="4" stroke="none"></path><path d="M513.14 833.99L583.2 819.31V814.89H513.14V833.99Z" fill="#000000" opacity="0.3" stroke-width="4" stroke="none"></path><path d="M583.08 944.04H513.26C513.14 944.04 513.14 944.04 513.14 944.16V974.24C513.14 974.36 513.14 974.36 513.26 974.36H583.08C583.2 974.36 583.2 974.36 583.2 974.24L583.08 944.04C583.2 944.04 583.2 944.04 583.08 944.04Z" fill="#ff4f32" opacity="1" stroke-width="4" stroke="none"></path><path d="M414.19 807.37C406.55 807.37 393.54 809.4 392.23 801.88L365.73 652.32C362.27 632.63 375.4 616.64 395.09 616.64H518.03C537.73 616.64 556.47 632.63 560.05 652.32L584.4 790.42 583.2 805.94 414.19 807.37Z" fill="#ff4f32" opacity="1" stroke-width="4" stroke="none"></path><path d="M392.11 799.02V799.97C392.11 808.21 398.79 814.89 407.03 814.89L708.05 814.89C716.29 814.89 722.97 808.21 722.97 799.97V799.02C722.97 790.78 716.29 784.1 708.05 784.1H407.03C398.79 784.1 392.11 790.78 392.11 799.02Z" fill="#7d1c2f" opacity="1" stroke-width="4" stroke="none"></path><path d="M452.86 1019V991.78C452.86 982.35 460.5 974.72 469.93 974.72H626.53C635.96 974.72 643.6 982.35 643.6 991.78V1019" stroke="#000000" stroke-width="4" stroke-linecap="round" stroke-linejoin="round" opacity="1" fill="none"></path><path d="M548.23 974.72V996.92" stroke="#000000" stroke-width="4" stroke-linecap="round" stroke-linejoin="round" opacity="1" fill="none"></path><path d="M453.22 1048.6C438.59 1048.6 426.72 1036.73 426.72 1022.1 426.72 1007.47 438.59 995.6 453.22 995.6 467.85 995.6 479.72 1007.47 479.72 1022.1 479.72 1036.73 467.85 1048.6 453.22 1048.6Z" fill="#000000" opacity="1" stroke-width="4" stroke="none"></path><path d="M453.22 1029.5C449.14 1029.5 445.82 1026.2 445.82 1022.1 445.82 1018.02 449.14 1014.7 453.22 1014.7 457.3 1014.7 460.62 1018.02 460.62 1022.1 460.62 1026.2 457.3 1029.5 453.22 1029.5Z" fill="#ff4f32" opacity="1" stroke-width="4" stroke="none"></path><path d="M643.6 1048.6C628.97 1048.6 617.1 1036.73 617.1 1022.1 617.1 1007.47 628.97 995.6 643.6 995.6 658.23 995.6 670.1 1007.47 670.1 1022.1 670.1 1036.73 658.23 1048.6 643.6 1048.6Z" fill="#000000" opacity="1" stroke-width="4" stroke="none"></path><path d="M643.6 1029.5C639.52 1029.5 636.2 1026.2 636.2 1022.1 636.2 1018.02 639.52 1014.7 643.6 1014.7 647.68 1014.7 651 1018.02 651 1022.1 651 1026.2 647.68 1029.5 643.6 1029.5Z" fill="#ff4f32" opacity="1" stroke-width="4" stroke="none"></path><path d="M547.75 1048.6C533.12 1048.6 521.26 1036.73 521.26 1022.1 521.26 1007.47 533.12 995.6 547.75 995.6 562.39 995.6 574.25 1007.47 574.25 1022.1 574.25 1036.73 562.39 1048.6 547.75 1048.6Z" fill="#000000" opacity="1" stroke-width="4" stroke="none"></path><path d="M547.75 1029.5C543.66 1029.5 540.35 1026.2 540.35 1022.1 540.35 1018.02 543.66 1014.7 547.75 1014.7 551.84 1014.7 555.15 1018.02 555.15 1022.1 555.15 1026.2 551.84 1029.5 547.75 1029.5Z" fill="#ff4f32" opacity="1" stroke-width="4" stroke="none"></path><path d="M532.83 944.04H563.63" stroke="#000000" stroke-width="4" stroke-linecap="round" stroke-linejoin="round" opacity="1" fill="none"></path><path d="M532.71 845.69H563.63" stroke="#000000" stroke-width="4" stroke-linecap="round" stroke-linejoin="round" opacity="1" fill="none"></path><path d="M513.14 814.89H583.2" stroke="#000000" stroke-width="4" stroke-linecap="round" stroke-linejoin="round" opacity="1" fill="none"></path><path d="M525.67 784.1L511.83 710.09" stroke="#000000" stroke-width="4" stroke-linecap="round" stroke-linejoin="round" opacity="1" fill="none"></path><path d="M488.19 784.1L474.23 710.09" stroke="#000000" stroke-width="4" stroke-linecap="round" stroke-linejoin="round" opacity="1" fill="none"></path><path d="M450.71 784.1L436.75 710.09" stroke="#000000" stroke-width="4" stroke-linecap="round" stroke-linejoin="round" opacity="1" fill="none"></path></g><g><path d="M1005.22 644.74L997.52 614.49H1041.06L1033.36 644.68 1005.22 644.74Z" fill="#ffc930" opacity="1" stroke-width="4" stroke="none"></path><path d="M998.63 618.9L997.52 614.49H1041.06L1037.15 629.9 998.63 618.9Z" fill="#846714" opacity="0.2" stroke-width="4" stroke="none"></path><path d="M996.71 614.55C992.86 614.55 989.75 611.45 989.75 607.6 989.75 603.74 992.86 600.64 996.71 600.64H1001.62C1002.86 593.06 1008.82 587.1 1016.4 585.85 1017.39 585.67 1018.33 585.61 1019.32 585.61 1028.08 585.61 1035.53 591.94 1036.96 600.64H1041.81C1045.66 600.64 1048.7 603.68 1048.76 607.6 1048.76 611.45 1045.66 614.55 1041.81 614.55H996.71Z" fill="#ffffff" opacity="1" stroke-width="4" stroke="none"></path><path d="M1017.39 600.64L1018.64 600.58C1029.13 598.28 1032.24 591.26 1032.3 591.2 1034.79 593.74 1036.4 597.04 1037.02 600.58H1017.39V600.64Z" fill="#cecece" opacity="0.2" stroke-width="4" stroke="none"></path><path d="M1018.88 590.45C1023 590.45 1026.34 587.11 1026.34 583 1026.34 578.88 1023 575.54 1018.88 575.54 1014.77 575.54 1011.43 578.88 1011.43 583 1011.43 587.11 1014.77 590.45 1018.88 590.45Z" fill="#ffa0dc" opacity="1" stroke-width="4" stroke="none"></path><path d="M1001.62 600.64H1013.73" stroke="#cecece" stroke-width="4" stroke-linecap="round" stroke-linejoin="round" opacity="1" fill="none"></path><path d="M1011 614.68L1014.41 643.75" stroke="#846714" stroke-width="4" stroke-linecap="round" stroke-linejoin="round" opacity="1" fill="none"></path><path d="M1026.77 614.68L1023.42 643.81" stroke="#846714" stroke-width="4" stroke-linecap="round" stroke-linejoin="round" opacity="1" fill="none"></path></g><g><path d="M1130.86 926.18C1129.17 944.74 1119.89 1019 1115.67 1044.31L1044.03 1042.37C1044.03 1042.37 1040.48 1034.27 1054.07 1025.49 1056.6 1023.81 1057.87 1020.68 1059.56 1018.83 1067.23 1010.31 1066.39 1000.18 1065.04 991.15 1064.11 984.82 1059.72 966.6 1056.26 952.17 1053.65 941.53 1051.54 932.93 1051.54 932.93L1130.86 926.18Z" fill="#a36b66" opacity="1" stroke-width="4" stroke="none"></path><path d="M1130.86 926.09C1130.02 935.54 1127.15 959.59 1124.02 984.23L1056.26 952.17C1053.65 941.45 1051.62 932.84 1051.62 932.84L1130.86 926.09Z" fill="#050505" opacity="0.2" stroke-width="4" stroke="none"></path><path d="M1053.23 1024.06C1055.5 1022.54 1057.7 1020.85 1059.56 1018.83 1067.99 1023.22 1072.89 1029.88 1074.91 1035.87H1096.6C1101.92 1022.79 1111.28 1017.48 1119.8 1016.04 1118.2 1027.6 1116.77 1037.65 1115.67 1044.31H1041.67C1041.58 1044.31 1041.41 1044.23 1041.41 1044.14 1041.24 1042.54 1040.74 1032.16 1053.23 1024.06Z" fill="#ff4f32" opacity="1" stroke-width="4" stroke="none"></path><path d="M1173.89 926.18C1173.22 934.02 1171.11 951.91 1168.58 971.91 1166.72 986.59 1164.7 1002.37 1162.84 1016.04 1160.31 1027.94 1155.92 1041.86 1155.92 1041.86L1086.64 1042.79C1086.64 1042.79 1084.45 1034.86 1098.03 1026.09 1100.65 1024.4 1100.9 1020.68 1102.59 1018.83 1110.27 1010.39 1109.43 1000.18 1108.08 991.15 1106.39 980.18 1094.57 932.93 1094.57 932.93L1173.89 926.18Z" fill="#a36b66" opacity="1" stroke-width="4" stroke="none"></path><path d="M1173.89 926.09C1173.22 933.94 1171.11 951.91 1168.58 971.91L1094.57 932.84 1173.89 926.09Z" fill="#050505" opacity="0.2" stroke-width="4" stroke="none"></path><path d="M1096.26 1024.06C1098.54 1022.54 1100.73 1020.85 1102.59 1018.83 1111.03 1023.22 1115.92 1029.88 1117.95 1035.87H1139.63C1144.95 1022.79 1154.32 1017.48 1162.84 1016.04 1161.24 1027.44 1159.8 1037.39 1158.79 1044.06 1158.79 1044.23 1158.62 1044.31 1158.45 1044.31H1085.04C1084.7 1044.31 1084.45 1044.06 1084.36 1043.72 1084.28 1041.27 1084.53 1031.65 1096.26 1024.06Z" fill="#ff4f32" opacity="1" stroke-width="4" stroke="none"></path><path d="M1062.34 645.77C1062.59 642.65 1069.18 640.29 1070.27 639.95 1070.36 639.95 1070.44 639.86 1070.44 639.7 1070.53 636.83 1072.72 607.46 1089.51 596.66 1097.61 590.84 1109.51 587.46 1125.71 591.01 1152.88 596.91 1159.72 613.71 1160.39 630.24 1161.24 649.65 1155.33 665.43 1151.11 675.56L1150.18 695.89 1101.24 707.71 1100.48 690.92C1081.83 694.88 1073.39 687.29 1071.12 682.65 1067.15 674.8 1067.91 663.15 1068.75 653.79 1068.75 653.62 1068.67 653.45 1068.5 653.37 1067.32 652.52 1062.09 649.4 1062.34 645.77Z" fill="#a36b66" opacity="1" stroke-width="4" stroke="none"></path><path d="M1203.26 944.66C1203.26 944.74 1203.26 944.74 1203.18 944.74H1132.63L1023.61 944.66C1023.52 944.66 1023.52 944.66 1023.52 944.57 1026.56 890.9 1035.17 845.76 1046.9 808.88H1187.56C1196 847.53 1203.01 894.36 1203.26 944.66Z" fill="#ff3838" opacity="1" stroke-width="4" stroke="none"></path><path d="M1083.18 643.49C1081.74 643.49 1080.57 642.32 1080.57 640.88 1080.57 639.43 1081.74 638.26 1083.18 638.26 1084.63 638.26 1085.8 639.43 1085.8 640.88 1085.8 642.32 1084.63 643.49 1083.18 643.49Z" fill="#000000" opacity="1" stroke-width="4" stroke="none"></path><path d="M1087.99 593.12C1088.16 593.28 1088.5 593.37 1088.75 593.2 1096.94 587.38 1112.63 582.65 1128.58 586.11 1136.51 587.88 1142.76 590.92 1147.57 594.8 1142.93 579.87 1149.51 560.54 1165.2 546.96 1184.86 529.91 1211.44 528.31 1224.52 543.33 1237.6 558.43 1232.2 584.42 1212.54 601.55 1195.58 616.24 1173.56 619.44 1159.46 610.5 1162.25 617 1163.43 623.83 1163.77 629.99 1164.61 649.4 1155.33 665.43 1151.11 675.56 1151.11 675.56 1139.3 671.59 1133.14 661.47 1132.8 660.88 1132.88 660.12 1133.39 659.61 1137.27 656.32 1151.95 642.56 1140.9 630.84 1129.42 618.6 1115.33 635.65 1112.04 640.03 1111.62 640.62 1110.86 640.88 1110.19 640.71 1105.21 639.36 1085.55 633.45 1072.3 622.48 1066.81 618.01 1062.51 612.61 1060.65 606.36 1055.59 587.97 1077.19 582.82 1087.99 593.12Z" fill="#000000" opacity="1" stroke-width="4" stroke="none"></path><path d="M1065.04 860.61L1067.74 849.13 1028.76 835.13 981.75 818.33C977.03 816.65 971.8 817.24 967.58 820.02 960.41 824.66 958.13 834.11 962.35 841.54 962.35 841.54 962.35 841.62 962.43 841.62 964.96 846.01 969.35 848.88 974.41 849.47L1065.04 860.61Z" fill="#ffa0dc" opacity="1" stroke-width="4" stroke="none"></path><path d="M1061.33 886.85L1055.59 876.56 1036.27 884.74 971.46 912.17C966.82 914.11 963.44 918.16 962.18 923.05 961.25 926.68 961.67 930.48 963.11 933.69 964.96 937.74 968.42 941.03 972.98 942.38 977.79 943.9 983.02 943.05 987.07 940.1L1061.33 886.85Z" fill="#ffa0dc" opacity="1" stroke-width="4" stroke="none"></path><path d="M1065.04 860.53L1067.74 849.05 1051.62 843.31 1028.76 835.13C1028.76 835.13 1018.71 847.87 965.05 841.79 964.37 841.71 963.11 841.54 962.6 841.54 962.51 841.54 962.51 841.62 962.51 841.71 965.05 846.01 969.43 848.8 974.5 849.39L1044.62 858.08 1065.04 860.53Z" fill="#a65086" opacity="0.2" stroke-width="4" stroke="none"></path><path d="M1061.33 886.77L1045.63 880.78 1042.93 881.87 1036.27 884.66C1036.27 884.66 1009.94 923.56 963.11 933.6 963.11 933.6 963.02 933.6 963.11 933.69 964.96 937.74 968.42 940.94 972.98 942.38 977.79 943.9 983.02 943.05 987.07 940.1L1047.74 896.64 1061.33 886.77Z" fill="#a65086" opacity="0.2" stroke-width="4" stroke="none"></path><path d="M1121.49 872.17C1120.23 861.29 1118.62 849.05 1116.09 834.96 1111.62 809.98 1150.27 770.32 1157.52 763.82 1158.11 763.32 1158.96 763.49 1159.21 764.16 1169.93 788.72 1169.42 820.78 1167.31 835.55 1164.7 854.79 1158.28 875.63 1142.67 891.24L1121.49 872.17Z" fill="#000000" opacity="0.2" stroke-width="4" stroke="none"></path><path d="M1102.17 851.92C1117.86 854.7 1138.45 861.79 1158.28 870.9 1198.03 889.13 1234.65 915.21 1222.84 930.39 1210.01 946.93 1168.83 900.02 1161.24 908.46 1153.64 916.89 1209.34 958.24 1189.93 970.05 1177.19 977.82 1154.4 954.44 1129.68 932.34 1116.68 920.69 1103.18 909.47 1090.36 903.39L1102.17 851.92Z" fill="#ffa0dc" opacity="1" stroke-width="4" stroke="none"></path><path d="M1105.63 852.17C1105.63 852.17 1161.24 840.53 1168.83 850.65 1177.1 861.62 1158.28 870.9 1158.28 870.9L1105.63 852.17Z" fill="#a65086" opacity="1" stroke-width="4" stroke="none"></path><path d="M1090.86 901.37C1106.89 902.89 1140.23 907.11 1143.77 916.05 1147.9 926.68 1134.4 931.07 1129.68 932.34 1124.87 928.03 1119.97 923.81 1115.16 919.85 1106.81 913.1 1098.54 907.19 1090.44 903.31L1090.86 901.37Z" fill="#a65086" opacity="1" stroke-width="4" stroke="none"></path><path d="M1071.27 914.01C1053.26 912.35 1040.41 891.98 1042.57 868.49 1044.73 845.02 1061.07 827.32 1079.08 828.97 1097.08 830.63 1109.93 851.01 1107.77 874.48 1105.62 897.97 1089.27 915.66 1071.27 914.01Z" fill="#ffa0dc" opacity="1" stroke-width="4" stroke="none"></path><path d="M1072.3 904.32C1068.85 904.32 1066.05 901.53 1066.05 898.08 1066.05 894.62 1068.85 891.83 1072.3 891.83 1075.75 891.83 1078.54 894.62 1078.54 898.08 1078.54 901.53 1075.75 904.32 1072.3 904.32Z" fill="#ffe8f7" opacity="1" stroke-width="4" stroke="none"></path><path d="M1060.57 855.72C1059.31 855.72 1058.29 854.69 1058.29 853.44 1058.29 852.18 1059.31 851.16 1060.57 851.16 1061.83 851.16 1062.85 852.18 1062.85 853.44 1062.85 854.69 1061.83 855.72 1060.57 855.72Z" fill="#360e27" opacity="1" stroke-width="4" stroke="none"></path><path d="M1060.57 891.16C1059.31 891.16 1058.29 890.14 1058.29 888.88 1058.29 887.62 1059.31 886.6 1060.57 886.6 1061.83 886.6 1062.85 887.62 1062.85 888.88 1062.85 890.14 1061.83 891.16 1060.57 891.16Z" fill="#360e27" opacity="1" stroke-width="4" stroke="none"></path><path d="M1074.83 852.85C1071.38 852.85 1068.58 850.05 1068.58 846.6 1068.58 843.15 1071.38 840.36 1074.83 840.36 1078.28 840.36 1081.07 843.15 1081.07 846.6 1081.07 850.05 1078.28 852.85 1074.83 852.85Z" fill="#ffe8f7" opacity="1" stroke-width="4" stroke="none"></path><path d="M1091.2 895.8C1088.58 905.25 1084.11 910.9 1083.1 912.17 1082.93 912.34 1082.93 912.59 1083.01 912.76 1084.79 918.58 1093.81 917.23 1095.33 916.98 1095.42 916.98 1095.59 917.06 1095.59 917.15 1097.36 921.2 1103.86 923.56 1107.99 917.99 1108.08 917.91 1108.24 917.82 1108.41 917.91 1116.35 923.22 1120.48 916.64 1121.58 915.37 1121.66 915.29 1121.75 915.21 1121.91 915.29 1136.93 919.17 1134.74 884.91 1134.4 881.45L1097.27 871.33C1095.42 878.08 1093.73 886.52 1091.2 895.8Z" fill="#a36b66" opacity="1" stroke-width="4" stroke="none"></path><path d="M1046.9 808.88C1061.83 761.88 1081.66 728.38 1100.99 708.05 1101.16 707.88 1101.24 707.62 1101.24 707.37L1100.73 695.89H1156.43C1156.76 695.89 1157.02 696.15 1157.02 696.49V706.86C1157.02 706.86 1174.15 747.54 1187.56 808.97L1158.71 813.61C1158.71 813.69 1158.71 813.86 1158.71 813.95 1155.67 840.86 1150.69 867.45 1143.85 893.69 1143.69 894.45 1142.93 894.95 1142.08 894.79L1093.81 885.76C1093.81 885.76 1093.73 885.76 1093.73 885.67 1096.35 866.85 1100.31 846.86 1102.93 817.91L1046.9 808.88Z" fill="#ffffff" opacity="1" stroke-width="4" stroke="none"></path><path d="M1100.48 690.83L1101.07 703.32C1101.07 703.49 1101.24 703.49 1101.32 703.4L1111.96 685.85C1112.04 685.68 1111.87 685.6 1111.7 685.68 1107.65 688.22 1105.71 689.06 1100.48 690.83Z" fill="#050505" opacity="0.2" stroke-width="4" stroke="none"></path><path d="M1084.36 1042.37C1084.2 1040.09 1084.28 1030.89 1096.26 1023.22 1110.61 1013.93 1109.76 1001.28 1108.08 990.31 1106.98 983.05 1101.83 960.35 1098.2 945.5" stroke="#050505" stroke-width="4" stroke-linecap="round" stroke-linejoin="round" opacity="1" fill="none"></path><path d="M1078.29 662.39C1079.81 663.07 1085.21 662.9 1086.73 658.43" stroke="#050505" stroke-width="4" stroke-linecap="round" stroke-linejoin="round" opacity="1" fill="none"></path><path d="M1100.48 690.83C1104.53 689.57 1108.16 688.55 1111.7 685.68" stroke="#050505" stroke-width="4" stroke-linecap="round" stroke-linejoin="round" opacity="1" fill="none"></path><path d="M1123.26 649.4L1130.02 642.65" stroke="#050505" stroke-width="4" stroke-linecap="round" stroke-linejoin="round" opacity="1" fill="none"></path><path d="M1044.87 889.81L1010.95 910.65" stroke="#360e27" stroke-width="4" stroke-linecap="round" stroke-linejoin="round" opacity="1" fill="none"></path><path d="M1047.57 850.15L1012.81 841.88" stroke="#360e27" stroke-width="4" stroke-linecap="round" stroke-linejoin="round" opacity="1" fill="none"></path><path d="M1068.42 866.26C1068.42 866.26 1070.95 870.48 1068.42 876.39" stroke="#360e27" stroke-width="4" stroke-linecap="round" stroke-linejoin="round" opacity="1" fill="none"></path><path d="M1099.64 907.61C1098.46 910.48 1097.02 914.19 1095.42 916.89" stroke="#050505" stroke-width="4" stroke-linecap="round" stroke-linejoin="round" opacity="1" fill="none"></path><path d="M1111.45 910.14C1110.86 912.51 1109.17 915.54 1108.08 917.74" stroke="#050505" stroke-width="4" stroke-linecap="round" stroke-linejoin="round" opacity="1" fill="none"></path><path d="M1124.95 907.61C1124.36 909.97 1122.67 913.01 1121.58 915.21" stroke="#050505" stroke-width="4" stroke-linecap="round" stroke-linejoin="round" opacity="1" fill="none"></path><path d="M1161.66 770.24C1161.66 770.24 1160.48 793.27 1158.79 813.52" stroke="#616161" stroke-width="4" stroke-linecap="round" stroke-linejoin="round" opacity="1" fill="none"></path><path d="M1104.36 797.07L1102.93 817.83" stroke="#616161" stroke-width="4" stroke-linecap="round" stroke-linejoin="round" opacity="1" fill="none"></path></g><g><path d="M1221.4 998.61L1197.87 951.77 1197.03 1001.56 1121.17 991.21 1189.28 1023.19 1150.61 1063.55 1202.87 1045.31 1219.43 1098.28 1225.2 1042.98 1283.1 1055.94 1238.16 1017.98 1267.75 974.16 1221.4 998.61Z" fill="#ff3838" opacity="1" stroke-width="4" stroke="none"></path></g></svg>