<svg xmlns="http://www.w3.org/2000/svg" height="1200" width="1600" version="1.1" xmlns:xlink="http://www.w3.org/1999/xlink" xmlns:svgjs="http://svgjs.com/svgjs"><rect fill="#f3e9f3" width="1600" height="1200"></rect><g><path d="M313.31 190.29H981.88C1012.45 190.29 1037.26 215.09 1037.26 245.66V662.49C1037.26 693.06 1012.45 717.87 981.88 717.87H313.31C282.74 717.87 257.93 693.06 257.93 662.49V245.49C257.93 215.09 282.74 190.29 313.31 190.29Z" fill="#cecece" opacity="1" stroke-width="4" stroke="none"></path><path d="M335.32 242.69H959.69C973.49 242.69 984.67 253.88 984.67 267.68V640.48C984.67 654.28 973.49 665.46 959.69 665.46H335.32C321.52 665.46 310.34 654.28 310.34 640.48V267.68C310.34 253.88 321.52 242.69 335.32 242.69Z" fill="#ffffff" opacity="1" stroke-width="4" stroke="none"></path></g><g><path d="M895.11 871.59L904.2 995.02C904.47 998.6 901.81 1001.63 898.23 1001.91 898.05 1001.91 897.95 1001.91 897.77 1001.91 895.02 1001.91 892.54 1000.16 891.71 997.5L850.23 871.59H895.11Z" fill="#492c5b" opacity="1" stroke-width="4" stroke="none"></path><path d="M989.64 871.59L1022.86 994.11C1023.78 997.32 1021.85 1000.62 1018.64 1001.54 1018.09 1001.72 1017.63 1001.72 1017.08 1001.72 1014.87 1001.72 1012.76 1000.44 1011.75 998.51L944.76 871.59H989.64Z" fill="#492c5b" opacity="1" stroke-width="4" stroke="none"></path><path d="M872.17 833.96H1320.94L1354.99 728.24C1363.06 703.18 1349.3 676.39 1324.24 668.31 1319.56 666.75 1314.61 666.02 1309.65 666.02H961C940.35 666.02 922 679.32 915.67 699.06L872.17 833.96Z" fill="#492c5b" opacity="1" stroke-width="4" stroke="none"></path><path d="M1316.35 871.59L1349.57 994.11C1350.49 997.32 1348.56 1000.62 1345.35 1001.54 1344.8 1001.72 1344.34 1001.72 1343.79 1001.72 1341.59 1001.72 1339.48 1000.44 1338.47 998.51L1271.47 871.59H1316.35Z" fill="#492c5b" opacity="1" stroke-width="4" stroke="none"></path><path d="M1221.82 871.59L1230.91 995.02C1231.18 998.6 1228.52 1001.63 1224.94 1001.91 1224.76 1001.91 1224.67 1001.91 1224.48 1001.91 1221.73 1001.91 1219.25 1000.16 1218.43 997.5L1176.95 871.59H1221.82Z" fill="#492c5b" opacity="1" stroke-width="4" stroke="none"></path><path d="M1176.95 871.59H1221.82L1224.03 900.96H1186.58L1176.95 871.59Z" fill="#000000" opacity="0.3" stroke-width="4" stroke="none"></path><path d="M850.23 871.59H895.11L897.31 900.96H859.87L850.23 871.59Z" fill="#000000" opacity="0.3" stroke-width="4" stroke="none"></path><path d="M1316.35 871.59L1324.33 900.96H1286.98L1271.47 871.59H1316.35Z" fill="#000000" opacity="0.3" stroke-width="4" stroke="none"></path><path d="M989.64 871.59L997.62 900.96H960.27L944.76 871.59H989.64Z" fill="#000000" opacity="0.3" stroke-width="4" stroke="none"></path><path d="M1233.75 814.69H838.21C817.47 814.69 800.58 831.58 800.58 852.32 800.58 873.06 817.47 889.94 838.21 889.94H1233.75C1254.49 889.94 1271.38 873.06 1271.38 852.32 1271.38 831.58 1254.49 814.69 1233.75 814.69Z" fill="#492c5b" opacity="1" stroke-width="4" stroke="none"></path><path d="M1331.95 814.69H1164.92C1144.18 814.69 1127.3 831.58 1127.3 852.32 1127.3 873.06 1144.18 889.94 1164.92 889.94H1331.95C1352.69 889.94 1369.58 873.06 1369.58 852.32 1369.58 831.58 1352.69 814.69 1331.95 814.69Z" fill="#000000" opacity="1" stroke-width="4" stroke="none"></path><path d="M954.49 889.94H994.59" stroke="#000000" stroke-width="4" stroke-linecap="round" stroke-linejoin="round" opacity="1" fill="none"></path><path d="M856.29 889.94H896.49" stroke="#000000" stroke-width="4" stroke-linecap="round" stroke-linejoin="round" opacity="1" fill="none"></path><path d="M1327.18 814.69H878.41" stroke="#000000" stroke-width="4" stroke-linecap="round" stroke-linejoin="round" opacity="1" fill="none"></path><path d="M1310.93 852.32H1196.13" stroke="#000000" stroke-width="4" stroke-linecap="round" stroke-linejoin="round" opacity="1" fill="none"></path><path d="M1321.31 889.94H1281.2" stroke="#000000" stroke-width="4" stroke-linecap="round" stroke-linejoin="round" opacity="1" fill="none"></path><path d="M1223.2 889.94H1183" stroke="#000000" stroke-width="4" stroke-linecap="round" stroke-linejoin="round" opacity="1" fill="none"></path></g><g><path d="M831.68 420.99L831.59 415.89C829.09 416.6 826.94 416.69 824.44 416.69 816.11 416.69 809.13 413.11 805.19 406.85 800.18 398.8 802.33 389.67 804.48 380.81 804.66 380 804.84 379.2 805.01 378.39 805.73 374.45 806.27 370.51 806.54 366.58 807.43 356.64 808.59 344.29 813.79 337.22 821.93 326.3 832.22 333.73 849.49 333.73 850.84 333.73 856.47 332.66 857.82 332.75 877.69 333.82 888.25 338.83 887.62 357.9 887.26 369.35 891.29 385.46 889.5 413.65L888.78 422.33 865.33 430.48 831.68 420.99Z" fill="#cf5934" opacity="1" stroke-width="4" stroke="none"></path><path d="M865.07 399.69L864.89 399.51 865.07 399.42C865.25 399.33 884.22 387.97 880.73 377.5 879.3 373.11 875.63 370.96 869.9 370.96 865.87 371.14 862.29 371.59 858.09 373.29L857.91 373.38 857.82 372.84C856.56 366.67 857.55 362.46 859.34 357.81 859.61 357.18 859.07 356.46 858.35 356.55 857.01 356.64 855.67 356.73 854.33 356.82 846.09 356.82 842.87 353.78 841.62 351.27 840.28 348.68 840.54 345.37 842.16 342.14 842.51 341.43 841.8 340.53 840.99 340.8 833.92 342.95 827.75 344.11 822.65 344.11 814.32 344.11 811.55 341.25 811.55 341.25 812.08 340 813.07 338.39 813.87 337.31 822.02 326.39 836.07 320.4 853.34 320.4 854.68 320.4 856.03 320.4 857.37 320.49 877.24 321.56 892.99 337.85 892.36 356.91 892.18 367.38 891.02 386.62 889.41 413.56 889.41 413.47 875 410.34 865.07 399.69Z" fill="#231f20" opacity="1" stroke-width="4" stroke="none"></path><path d="M831.59 415.89C835.8 414.37 841.26 411.95 845.11 409.62" stroke="#000000" stroke-width="4" stroke-linecap="round" stroke-linejoin="round" opacity="1" fill="none"></path><path d="M860.14 386.8L867.21 383.94" stroke="#000000" stroke-width="4" stroke-linecap="round" stroke-linejoin="round" opacity="1" fill="none"></path><path d="M823.36 375.44L822.82 377.41C822.47 378.57 822.82 379.73 823.72 380.54L823.9 380.72" stroke="#000000" stroke-width="4" stroke-linecap="round" stroke-linejoin="round" opacity="1" fill="none"></path><path d="M821.39 389.58C822.65 390.47 826.85 390.65 829.36 387.61" stroke="#000000" stroke-width="4" stroke-linecap="round" stroke-linejoin="round" opacity="1" fill="none"></path><path d="M835.53 373.92C836.82 373.92 837.86 372.88 837.86 371.59 837.86 370.31 836.82 369.26 835.53 369.26 834.24 369.26 833.21 370.31 833.21 371.59 833.21 372.88 834.24 373.92 835.53 373.92Z" fill="#231f20" opacity="1" stroke-width="4" stroke="none"></path><path d="M815.58 370.96C816.86 370.96 817.9 369.92 817.9 368.64 817.9 367.36 816.86 366.31 815.58 366.31 814.29 366.31 813.25 367.36 813.25 368.64 813.25 369.92 814.29 370.96 815.58 370.96Z" fill="#231f20" opacity="1" stroke-width="4" stroke="none"></path><path d="M690.73 473.17C689.3 469.23 688.4 467.17 687.24 464.22 685.36 459.74 682.85 453.66 676.41 436.47 673.46 430.57 670.68 425.47 668.18 420.99 663.07 411.77 660.03 406.22 661.73 404.43 662.18 403.99 662.72 403.72 663.43 403.72 665.94 403.72 667.28 405.15 673.46 411.59 674.35 412.58 676.95 415.26 678.56 416.87 678.74 417.05 679 416.87 678.91 416.6 677.93 414.46 676.14 410.7 675.33 409 671.84 401.66 668.62 395.04 670.95 390.2 671.58 388.95 672.74 388.06 674.08 387.79 674.17 383.76 676.05 381.34 679.18 381.34 680.62 381.43 681.96 381.79 683.21 382.42 684.28 381.7 685.54 381.34 686.79 381.34 694.22 381.34 701.92 393.87 708.72 404.88 711.94 410.07 714.89 414.99 717.4 417.5 717.67 404.97 720.08 397.54 723.84 397.54 724.29 397.54 724.65 397.63 725.01 397.81 727.87 398.88 729.39 406.49 731.09 415.35 731.45 417.23 731.9 419.2 732.25 421.17 732.97 424.66 733.6 427.7 734.13 430.39 735.92 438.53 737.09 443.99 736.19 451.33 739.06 458.58 741.83 466.1 744.34 472.63L744.78 473.88 690.73 473.17Z" fill="#cf5934" opacity="1" stroke-width="4" stroke="none"></path><path d="M717.4 417.5V426.09C717.4 426.09 708.18 435.49 709.79 448.73" stroke="#000000" stroke-width="4" stroke-linecap="round" stroke-linejoin="round" opacity="1" fill="none"></path><path d="M683.84 382.6C693.5 395.57 701.47 411.77 701.47 411.77" stroke="#000000" stroke-width="4" stroke-linecap="round" stroke-linejoin="round" opacity="1" fill="none"></path><path d="M674.17 387.79C678.47 393.16 691.8 416.96 691.8 416.96" stroke="#000000" stroke-width="4" stroke-linecap="round" stroke-linejoin="round" opacity="1" fill="none"></path><path d="M678.83 416.87L682.67 422.96" stroke="#000000" stroke-width="4" stroke-linecap="round" stroke-linejoin="round" opacity="1" fill="none"></path><path d="M832.04 422.15V415.71L833.74 415.26C838.31 413.92 841.35 412.58 845.74 410.61L846 411.15 840.46 426 832.04 422.15Z" fill="#000000" opacity="0.3" stroke-width="4" stroke="none"></path><path d="M921.72 577.7C909.55 577.7 895.58 576.09 879.83 572.51L879.3 571.7 880.55 554.34H819.07L808.77 516.39C806.89 519.26 792.57 539.48 768.59 548.34 762.32 550.85 755.61 552.1 748.9 552.28 715.88 552.28 700.93 512.46 689.65 470.39L738.16 456.7 751.5 488.74C752.66 487.13 759.64 477.64 771.9 462.25 794.99 431.37 828.91 428.33 831.68 428.15V420.99H888.96L888.6 426.45C907.85 429.31 925.03 439.87 936.39 455.63 936.84 456.25 984.45 519.97 967.09 558.55 961.81 570.72 945.17 577.7 921.72 577.7Z" fill="#ff30ff" opacity="1" stroke-width="4" stroke="none"></path><path d="M808.77 516.39L805.37 501.72" stroke="#5f5f5f" stroke-width="4" stroke-linecap="round" stroke-linejoin="round" opacity="1" fill="none"></path><path d="M798.3 528.48C798.3 528.39 800.72 521.23 800.72 507.09 800.72 498.85 800.72 493.48 803.58 493.48H803.76L809.22 516.04V516.12C806.18 520.6 802.6 524.81 798.75 528.65L798.3 528.48Z" fill="#5f5f5f" opacity="0.3" stroke-width="4" stroke="none"></path><path d="M901.67 507.71L909.99 528.48" stroke="#5f5f5f" stroke-width="4" stroke-linecap="round" stroke-linejoin="round" opacity="1" fill="none"></path><path d="M810.92 597.92C810.83 597.92 810.83 597.92 810.74 597.92 809.94 597.83 809.13 597.3 808.86 596.49 807.7 593.63 810.38 586.92 815.75 579.22 814.77 579.85 813.79 580.56 812.8 581.28 806.72 585.57 799.11 590.94 793.2 590.94 790.78 591.03 788.55 589.87 787.12 587.99 784.97 587.99 783.36 587.27 782.37 586.02 781.3 584.59 781.21 582.44 782.01 580.02 780.94 578.15 780.94 575.73 781.92 572.87 783.89 567.14 790.16 559.35 799.02 551.57 807.16 544.49 815.93 538.59 822.11 536.26 838.22 530.18 863.81 528.56 882.43 528.39H882.61L879.83 572.51C879.83 572.51 868.74 569.91 862.11 568.12 861.22 568.57 850.57 573.94 833.65 576.62 824.08 589.6 813.79 597.92 810.92 597.92Z" fill="#cf5934" opacity="1" stroke-width="4" stroke="none"></path><path d="M895.5 528.74L895.58 528.48C898.54 521.67 894.15 517.38 894.24 510.84 894.33 503.51 895.41 501.72 899.34 501.09L909.99 528.48 895.5 528.74Z" fill="#5f5f5f" opacity="0.3" stroke-width="4" stroke="none"></path><path d="M782.19 579.22C787.92 572.78 800.72 561.41 810.03 554.97" stroke="#000000" stroke-width="4" stroke-linecap="round" stroke-linejoin="round" opacity="1" fill="none"></path><path d="M787.2 587.72C791.5 583.43 805.73 571.34 817.19 563.47" stroke="#000000" stroke-width="4" stroke-linecap="round" stroke-linejoin="round" opacity="1" fill="none"></path><path d="M816.11 578.68L824.35 572.06" stroke="#000000" stroke-width="4" stroke-linecap="round" stroke-linejoin="round" opacity="1" fill="none"></path><path d="M751.67 489.19L750.78 499.93" stroke="#5f5f5f" stroke-width="4" stroke-linecap="round" stroke-linejoin="round" opacity="1" fill="none"></path><path d="M882.25 528.39C891.56 528.39 907.85 528.48 919.3 529.19" stroke="#5f5f5f" stroke-width="4" stroke-linecap="round" stroke-linejoin="round" opacity="1" fill="none"></path></g><g><path d="M929.51 619.17H365.51V647.17H929.51V619.17Z" fill="#221f23" opacity="1" stroke-width="4" stroke="none"></path></g><g><path d="M633.11 627.17H375.51V639.17H633.11V627.17Z" fill="#ffffff" opacity="1" stroke-width="4" stroke="none"></path></g><g><path d="M444.04 325.7C464.53 324.89 466.55 316.42 474.37 328.2 475.34 329.65 487.04 327.88 487.84 329.81 490.35 336.59 491.64 346.75 493.01 355.87 493.01 355.87 500.27 357.32 500.83 360.39 501.4 363.93 495.02 368.94 495.02 368.94 497.69 377.24 498.98 386.76 492.93 395.23 484.21 407.49 462.03 404.27 462.03 404.27L461.79 409.91 441.38 420.16 407.02 409.91 406.86 405.4C408.87 387.81 414.6 355.79 414.6 346.51 414.6 321.1 420.49 326.59 444.04 325.7Z" fill="#e59763" opacity="1" stroke-width="4" stroke="none"></path><path d="M461.95 404.27L461.71 409.91 452.67 417.25 443.64 404.35C442.03 402.01 444.37 399.11 447.03 400.07L461.95 404.27Z" fill="#000000" opacity="0.3" stroke-width="4" stroke="none"></path><path d="M485.42 325.05C477.52 313.2 464.29 307.06 443.56 307.87 419.84 308.76 405.57 322.71 405.48 348.29 405.48 357.32 406.29 387.81 406.86 405.4 406.86 405.4 425.41 405.16 433.56 394.59 433.56 394.59 416.46 378.29 424.6 366.11 432.75 353.93 451.46 368.53 451.46 368.53 463.81 362.72 459.37 350.46 458.24 347.88 458.16 347.72 458.32 347.48 458.56 347.56 462.11 348.69 483.25 354.42 477.68 334.81 477.6 334.57 477.76 334.41 478 334.41 485.83 334.25 487.84 329.81 487.84 329.81 487.2 328.12 486.31 326.59 485.42 325.05Z" fill="#c65a42" opacity="1" stroke-width="4" stroke="none"></path><path d="M487.76 375.55C482.04 376.52 478.81 371.68 478.81 371.68" stroke="#000000" stroke-width="4" stroke-linecap="round" stroke-linejoin="round" opacity="1" fill="none"></path><path d="M461.95 404.27L448.88 400.64" stroke="#000000" stroke-width="4" stroke-linecap="round" stroke-linejoin="round" opacity="1" fill="none"></path><path d="M445.58 379.66L438.56 376.52" stroke="#000000" stroke-width="4" stroke-linecap="round" stroke-linejoin="round" opacity="1" fill="none"></path><path d="M483.25 358.77C484.63 358.77 485.75 357.65 485.75 356.27 485.75 354.89 484.63 353.77 483.25 353.77 481.87 353.77 480.75 354.89 480.75 356.27 480.75 357.65 481.87 358.77 483.25 358.77Z" fill="#231f20" opacity="1" stroke-width="4" stroke="none"></path><path d="M545.92 503.97C531.89 510.59 520.76 516.07 520.76 516.07 520.76 516.07 513.5 475.74 504.62 453.15 495.75 430.56 482.84 418.46 461.87 416.85L461.71 409.91H407.02V417.5C381.45 420.8 365.88 455.49 355.39 492.6 348.37 517.52 345.15 550.84 357.49 572.05 366.44 587.54 389.75 583.83 393.55 566.33L476.95 566.49C476.95 566.49 490.1 584.56 517.53 581.33 533.82 579.39 557.22 565.92 575.77 553.66L577.87 551.24 553.75 503.65 545.92 503.97Z" fill="#b132ff" opacity="1" stroke-width="4" stroke="none"></path><path d="M365.31 579.64C365.39 579.64 365.39 579.72 365.47 579.72 374.35 584.64 388.87 580.93 393.14 568.02L393.55 566.25 388.54 528.41C381.28 528.41 384.43 543.42 380.4 562.78 376.93 579.56 365.31 579.64 365.31 579.64Z" fill="#000000" opacity="0.3" stroke-width="4" stroke="none"></path><path d="M476.95 566.49C469.21 552.69 458.64 527.36 453 495.9" stroke="#000000" stroke-width="4" stroke-linecap="round" stroke-linejoin="round" opacity="1" fill="none"></path><path d="M386.37 512.28L393.55 566.33" stroke="#000000" stroke-width="4" stroke-linecap="round" stroke-linejoin="round" opacity="1" fill="none"></path><path d="M520.76 516.07L512.53 533.49" stroke="#000000" stroke-width="4" stroke-linecap="round" stroke-linejoin="round" opacity="1" fill="none"></path><path d="M373.94 545.11L390.32 541.88" stroke="#000000" stroke-width="4" stroke-linecap="round" stroke-linejoin="round" opacity="1" fill="none"></path><path d="M622.07 493L614.09 500.99C613.76 501.31 613.28 501.63 612.8 501.71 610.62 502.2 604.17 503.57 598.2 503.16 596.02 503 594.89 500.5 596.18 498.81 599.89 493.81 605.62 485.01 602.23 482.19 599.24 479.69 568.75 493.24 545.92 503.97L575.77 553.66C588.44 545.27 598.76 537.61 603.04 534.62 609.25 530.11 614.09 523.81 616.59 516.47 616.67 516.15 616.83 515.91 616.99 515.67 618.69 513.57 627.32 502.28 626.67 494.61 626.51 492.36 623.69 491.39 622.07 493Z" fill="#e59763" opacity="1" stroke-width="4" stroke="none"></path><path d="M476.95 566.49C463.48 545.19 454.77 504.78 454.77 504.78H453.88C448.4 506.15 445.82 509.7 444.28 519.46 442.59 532.69 438.4 556.08 428.07 566.41L476.95 566.49Z" fill="#000000" opacity="0.3" stroke-width="4" stroke="none"></path><path d="M616.75 516.07C611.1 520.1 595.53 519.3 595.53 519.3" stroke="#000000" stroke-width="4" stroke-linecap="round" stroke-linejoin="round" opacity="1" fill="none"></path><path d="M608.76 529.62C601.42 532.2 591.74 532.2 591.74 532.2" stroke="#000000" stroke-width="4" stroke-linecap="round" stroke-linejoin="round" opacity="1" fill="none"></path><path d="M596.18 498.81L586.9 509.62" stroke="#000000" stroke-width="4" stroke-linecap="round" stroke-linejoin="round" opacity="1" fill="none"></path></g><g><path d="M916.94 939.83C918.11 938.73 919.5 937.71 920.75 936.9H920.82L969.43 956.6 1022.73 987.71C1022.73 987.71 1022.81 987.79 1022.73 987.79 1020.46 992.4 1017.97 997.16 1015.41 1001.99 1015.41 1001.99 1015.34 1002.06 1015.34 1001.99L910.06 949.5C910.06 949.5 909.98 949.42 910.06 949.42 912.03 945.25 914.38 942.18 916.94 939.83Z" fill="#421542" opacity="1" stroke-width="4" stroke="none"></path><path d="M1048.95 911.5L976.25 873.94C976.18 873.94 976.18 873.94 976.18 874.01 975.52 876.28 974.71 879.43 973.98 882.87 972.22 890.85 970.39 900.3 969.51 902.13 969.59 903.01 973.83 948.4 973.98 950.3 973.98 950.38 973.98 950.38 974.05 950.38H1032.55L1040.24 946.93C1040.24 946.93 1040.24 946.93 1040.31 946.86 1043.68 937.64 1046.61 928.19 1049.1 919.26L1048.95 911.5C1049.02 911.5 1049.02 911.5 1048.95 911.5Z" fill="#faa378" opacity="1" stroke-width="4" stroke="none"></path><path d="M1161.11 945.33L1163.3 940.5C1163.3 940.5 1163.3 940.5 1163.3 940.43 1162.2 930.98 1160.81 921.83 1159.13 913.04L1155.1 900.96 1155.03 900.89 1074.13 902.14C1074.06 902.14 1074.06 902.21 1074.06 902.21L1075.96 913.04C1078.08 920.07 1079.47 926.52 1080.06 931.42L1101.44 973.3C1101.44 973.3 1101.51 973.37 1101.51 973.3L1161.11 945.33Z" fill="#faa378" opacity="1" stroke-width="4" stroke="none"></path><path d="M1220.64 732.05L1215.07 706.28 1215 706.21 1122.31 711.19 1116.75 714.12C1115.79 714.19 1041.78 720.34 1013.66 749.04 986.72 774.3 984.01 838.43 973.91 882.8V882.87C975.96 883.9 1046.31 917.94 1048.95 919.26 1049.02 919.26 1049.02 919.26 1049.02 919.19 1051 911.72 1052.68 904.84 1054.15 898.39 1062.35 862.37 1063.23 840.63 1063.15 813.69 1063.15 813.61 1063.15 813.61 1063.23 813.61L1154.3 813.91C1197.5 814.05 1229.71 774.22 1220.64 732.05Z" fill="#ff30ff" opacity="1" stroke-width="4" stroke="none"></path><path d="M1063.15 813.61L1047.33 773.71C1047.33 773.64 1047.26 773.64 1047.19 773.71 1021.63 794.28 1026.69 838.58 1054.14 898.25 1054.14 898.32 1054.29 898.32 1054.29 898.25 1062.41 862.3 1063.29 840.41 1063.15 813.61Z" fill="#1d111d" opacity="0.2" stroke-width="4" stroke="none"></path><path d="M1258.11 747.22C1252.55 722.91 1243.69 707.39 1243.18 706.51H1243.11L1191.64 709.8C1191.64 709.8 1084.74 721.74 1051.87 760.69 1025.15 792.39 1062.71 869.56 1075.89 912.9L1075.96 912.97H1159.06C1159.13 912.97 1159.13 912.9 1159.13 912.9 1151.95 875.49 1139.95 842.61 1125.67 814.28 1125.67 814.21 1125.67 814.21 1125.74 814.21H1179.85 1193.47C1242.3 814.28 1263.17 785.87 1259.29 754.1 1259.07 751.75 1258.63 749.49 1258.11 747.22Z" fill="#ff30ff" opacity="1" stroke-width="4" stroke="none"></path><path d="M1112.05 788.72L1125.74 814.13C1125.74 814.13 1158.76 814.13 1173.48 814.13 1176.55 814.13 1178.82 814.13 1179.85 814.13 1150.34 814.13 1122.74 785.57 1112.13 788.65 1112.05 788.65 1111.98 788.72 1112.05 788.72Z" fill="#1d111d" opacity="0.2" stroke-width="4" stroke="none"></path><path d="M1094.99 733.15C1077.28 740.25 1061.46 749.33 1051.87 760.68 1033.06 782.94 1046.09 827.74 1060 867.42" stroke="#1d111d" stroke-width="4" stroke-linecap="round" stroke-linejoin="round" opacity="1" fill="none"></path><path d="M1075.96 913.04H1158.4" stroke="#1d111d" stroke-width="4" stroke-linecap="round" stroke-linejoin="round" opacity="1" fill="none"></path><path d="M974.19 882.95L1048.28 918.97" stroke="#1d111d" stroke-width="4" stroke-linecap="round" stroke-linejoin="round" opacity="1" fill="none"></path><path d="M1052.53 985.74C1052.46 985.74 1052.46 985.66 1052.46 985.59 1061.1 971.24 1080.2 967.51 1080.35 938.44 1080.42 936.1 1080.28 933.54 1079.99 931.12 1079.99 931.05 1079.99 931.05 1080.06 931.05H1099.24C1106.05 931.05 1111.32 937.12 1110.22 943.93L1107.22 962.6C1107.22 962.68 1107.29 962.75 1107.37 962.68 1109.34 960.85 1130.06 941.88 1163.3 940.42 1163.38 940.42 1163.38 940.42 1163.38 940.49 1164.4 949.06 1165.06 958.14 1165.57 966.92 1165.86 973 1166.08 979.29 1166.16 985.66 1166.16 985.74 1166.16 985.74 1166.08 985.74 1164.03 985.96 1109.64 991.16 1109.27 991.23 1108.9 991.23 1055.46 985.96 1052.53 985.74Z" fill="#ff30ff" opacity="1" stroke-width="4" stroke="none"></path><path d="M1052.46 985.74L1166.16 985.81C1166.23 985.81 1166.23 985.81 1166.23 985.88 1166.3 991.08 1166.23 996.57 1166.16 1001.99 1166.16 1002.06 1166.16 1002.06 1166.08 1002.06H1048.36C1048.28 1002.06 1048.28 1002.06 1048.28 1001.99 1048.43 995.55 1049.38 990.72 1052.46 985.74 1052.38 985.74 1052.38 985.74 1052.46 985.74Z" fill="#421542" opacity="1" stroke-width="4" stroke="none"></path><path d="M1078.6 954.4L1090.76 959.45" stroke="#421542" stroke-width="4" stroke-linecap="round" stroke-linejoin="round" opacity="1" fill="none"></path><path d="M1072.59 965.54L1082.77 972.35" stroke="#421542" stroke-width="4" stroke-linecap="round" stroke-linejoin="round" opacity="1" fill="none"></path><path d="M1107.15 962.82L1102.54 985.81" stroke="#421542" stroke-width="4" stroke-linecap="round" stroke-linejoin="round" opacity="1" fill="none"></path><path d="M920.89 936.9C920.82 936.9 920.82 936.83 920.89 936.76 935.1 927.83 954.13 932.88 967.16 906.89 967.9 905.42 968.63 903.81 969.43 902.13 969.43 902.05 969.51 902.05 969.51 902.05L983.12 908.64C990.15 912.01 992.5 920.94 988.03 927.39L978.36 941.37C978.29 941.44 978.36 941.52 978.44 941.52 981.07 940.71 1008.9 932.66 1040.16 946.86L1040.23 946.93C1037.3 954.84 1034.23 962.6 1030.79 970.51 1028.37 976.07 1025.59 981.93 1022.81 987.64 1022.81 987.64 1022.73 987.71 1022.73 987.64 1019.14 986.03 924.33 939.1 920.89 936.9Z" fill="#ff30ff" opacity="1" stroke-width="4" stroke="none"></path><path d="M956.91 921.76L965.55 931.2" stroke="#421542" stroke-width="4" stroke-linecap="round" stroke-linejoin="round" opacity="1" fill="none"></path><path d="M947.1 927.83L952.01 938.16" stroke="#421542" stroke-width="4" stroke-linecap="round" stroke-linejoin="round" opacity="1" fill="none"></path><path d="M978.15 941.52L964.17 958.73" stroke="#421542" stroke-width="4" stroke-linecap="round" stroke-linejoin="round" opacity="1" fill="none"></path><path d="M1125.68 814.21C1125.68 814.21 1115.35 794.88 1112.06 788.73" stroke="#2b182b" stroke-width="4" stroke-linecap="round" stroke-linejoin="round" opacity="1" fill="none"></path><path d="M1079.47 611.4C1074.71 617.4 1071.42 621.43 1070.91 622.09 1070.91 622.16 1070.83 622.09 1070.76 622.09 1069.74 619.3 1050.7 567.54 1041.18 548.36 1031.37 528.59 1026.69 517.24 1020.9 520.47 1016.22 523.1 1019.29 542.72 1019.66 545.14 1019.66 545.21 1019.58 545.29 1019.51 545.21 1018.34 543.97 1011.53 536.79 1005.75 533.86 998.5 529.91 991.03 533.79 991.62 540.6 991.62 540.67 991.62 540.67 991.54 540.67 991.1 540.53 989.05 539.94 986.78 540.31 984.37 540.53 981.59 542.72 980.93 546.9 980.93 546.9 980.93 546.97 980.85 546.97 980.2 546.97 973.09 549.39 974.41 556.34 974.48 556.63 974.27 556.85 974.05 556.93 962.92 558.9 973.9 581.89 980.05 581.31 981.07 581.31 982.03 581.09 982.9 580.57 983.34 580.5 984 579.26 984.3 579.77 988.83 588.19 998.65 594.92 1005.31 596.02 1005.31 596.02 1005.38 596.02 1005.38 596.1 1005.67 599.1 1015.12 698.81 1066.29 697.94 1079.99 697.94 1091.85 692.88 1100.78 687.17 1106.64 683.29 1111.25 679.34 1114.25 676.12V676.04C1113.66 674.51 1101.51 635.85 1101.29 635.12L1079.62 611.4C1079.55 611.32 1079.55 611.32 1079.47 611.4Z" fill="#faa378" opacity="1" stroke-width="4" stroke="none"></path><path d="M1127.13 538.55C1135.41 546.24 1150.71 542.58 1152.03 542.28 1152.1 542.28 1152.1 542.28 1152.1 542.36V550.26 551.95L1152.17 589.65C1152.17 589.73 1152.25 589.73 1152.25 589.73L1206.06 581.38C1206.06 581.38 1206.13 581.38 1206.13 581.31L1207.96 555.39 1208.04 530.2 1203.72 499.23C1203.72 481.52 1207.52 463.58 1188.41 455.38 1167.04 446.08 1144.05 451.28 1135.55 462.33 1130.72 468.78 1123.55 472.95 1122.96 481.52 1122.6 487.74 1122.74 494.77 1122.38 499.53 1121.42 510.73 1115.86 528.37 1127.13 538.55Z" fill="#faa378" opacity="1" stroke-width="4" stroke="none"></path><path d="M1152.1 542.29V550.05C1152.1 550.12 1152.17 550.12 1152.25 550.12L1167.91 535.92C1167.99 535.85 1167.91 535.77 1167.84 535.77 1160.01 540.17 1152.83 542.07 1152.1 542.29 1152.1 542.29 1152.17 542.22 1152.1 542.29Z" fill="#171717" opacity="0.2" stroke-width="4" stroke="none"></path><path d="M1122.96 481.44C1122.96 481.44 1127.94 482.47 1133.94 477.56 1134.09 477.49 1134.24 477.49 1134.31 477.64 1135.12 479.54 1140.09 489.35 1154 483.93 1154.08 483.93 1154.08 483.93 1154.08 484.01 1153.86 495.35 1166.01 499.89 1166.82 500.19H1166.89C1167.55 499.23 1181.09 479.98 1192 489.06 1204.38 499.31 1189.15 519.66 1188.34 520.61V520.69C1193.32 526.1 1200.42 529.54 1207.82 530.06 1207.89 530.06 1207.89 530.06 1207.89 529.98L1207.96 499.16C1207.96 481.44 1207.3 457.21 1188.19 449.01 1166.82 439.71 1138.04 447.18 1129.62 458.31 1125.16 464.6 1123.55 472.51 1122.96 481.44Z" fill="#231f20" opacity="1" stroke-width="4" stroke="none"></path><path d="M1177.29 507.87L1183.73 501.43" stroke="#000000" stroke-width="4" stroke-linecap="round" opacity="1" fill="none"></path><path d="M1167.77 535.77C1167.77 535.77 1156.86 541.27 1152.1 542.29" stroke="#000000" stroke-width="4" stroke-linecap="round" opacity="1" fill="none"></path><path d="M1137.46 523.1C1140.53 523.69 1142.88 522 1143.61 519.59" stroke="#000000" stroke-width="4" stroke-linecap="round" opacity="1" fill="none"></path><path d="M1136.14 513.52C1135.33 513.23 1134.75 512.64 1134.38 511.91 1134.02 510.74 1134.75 508.69 1135.26 507.37" stroke="#000000" stroke-width="4" stroke-linecap="round" opacity="1" fill="none"></path><path d="M1128.53 499.17C1131.6 499.24 1131.6 503.78 1128.53 503.85 1125.45 503.78 1125.45 499.24 1128.53 499.17Z" fill="#231f20" opacity="1" stroke-width="4" stroke="none"></path><path d="M1147.78 500.11C1150.86 500.19 1150.86 504.72 1147.78 504.8 1144.71 504.72 1144.71 500.19 1147.78 500.11Z" fill="#231f20" opacity="1" stroke-width="4" stroke="none"></path><path d="M1289.38 626.63C1273.27 598.29 1252.84 576.4 1242.15 568.64 1231.9 561.03 1220.48 555.17 1208.04 551.87H1207.96C1207.3 552.97 1194.93 573.77 1174.36 573.77 1153.13 573.77 1152.17 553.27 1152.1 551.87 1152.1 551.8 1152.03 551.8 1152.03 551.8 1122.74 555.61 1100.05 585.92 1079.55 611.18V611.25L1095.07 640.17 1114.25 675.82C1114.25 675.9 1114.32 675.9 1114.4 675.82 1117.1 673.04 1119.45 670.26 1121.57 667.19 1121.64 667.11 1121.72 667.19 1121.72 667.26L1116.59 714.41C1116.59 714.48 1116.59 714.48 1116.67 714.48H1247.13C1247.21 714.48 1247.21 714.48 1247.21 714.41L1244.94 648.96 1289.38 626.63C1289.38 626.7 1289.38 626.7 1289.38 626.63Z" fill="#61ffff" opacity="1" stroke-width="4" stroke="none"></path><path d="M974.64 556.79C975.88 563.38 980.06 576.55 988.04 574.43 988.04 574.43 991.99 573.26 992.87 568.28" stroke="#000000" stroke-width="4" stroke-linecap="round" stroke-linejoin="round" opacity="1" fill="none"></path><path d="M980.86 546.9C982.25 554.3 987.52 567.55 992.87 568.21 998.21 568.87 999.31 560.67 999.31 560.67" stroke="#000000" stroke-width="4" stroke-linecap="round" stroke-linejoin="round" opacity="1" fill="none"></path><path d="M991.62 540.68C992.14 546.17 996.38 561.77 1001.95 561.55 1007.51 561.33 1007.29 553.27 1005.61 546.02" stroke="#000000" stroke-width="4" stroke-linecap="round" stroke-linejoin="round" opacity="1" fill="none"></path><path d="M984 579.56C985.32 576.85 984 574.21 984 574.21" stroke="#000000" stroke-width="4" stroke-linecap="round" stroke-linejoin="round" opacity="1" fill="none"></path><path d="M1258.11 747.22C1252.55 722.91 1243.69 707.39 1243.18 706.51H1243.11L1191.64 709.8C1191.49 709.8 1122.52 718.3 1163.96 724.3L1259.14 754.02C1259.21 754.02 1259.21 754.02 1259.21 753.95 1259.07 751.68 1258.63 749.56 1258.11 747.22Z" fill="#1d111d" opacity="0.2" stroke-width="4" stroke="none"></path><path d="M1076.47 615.13C1073.25 619.16 1071.13 621.79 1070.83 622.16V622.23L1075.3 633.65C1075.3 633.73 1075.45 633.73 1075.45 633.65L1076.62 615.28C1076.62 615.13 1076.54 615.13 1076.47 615.13Z" fill="#171717" opacity="0.2" stroke-width="4" stroke="none"></path><path d="M1101 686.96C1109.86 680.96 1116.45 674.66 1121.72 667.12 1121.79 666.17 1124.57 640.25 1125.16 633.59 1125.16 633.44 1124.94 633.37 1124.87 633.51 1122.01 639.88 1102.39 683.37 1100.78 686.89 1100.85 686.96 1100.92 687.03 1101 686.96Z" fill="#000000" opacity="0.2" stroke-width="4" stroke="none"></path><path d="M1075.52 633.21L1070.83 622.23" stroke="#000000" stroke-width="4" stroke-linecap="round" opacity="1" fill="none"></path><path d="M1121.8 667.11L1125.31 632.7" stroke="#000000" stroke-width="4" stroke-linecap="round" opacity="1" fill="none"></path><path d="M1228.54 657.24C1226.05 651.89 1223.2 645.74 1220.56 639.45 1220.49 639.23 1220.12 639.3 1220.12 639.52L1218.44 714.56 1218.51 714.64H1247.21L1247.29 714.56 1237.62 652.77 1228.62 657.31C1228.54 657.24 1228.54 657.24 1228.54 657.24Z" fill="#000000" opacity="0.2" stroke-width="4" stroke="none"></path><path d="M1156.2 701.6C1156.27 701.6 1156.35 701.67 1156.27 701.74 1151.81 703.65 1132.11 711.33 1128.09 714.63 1120.4 720.78 1134.02 723.19 1135.04 723.41 1135.12 723.41 1135.12 723.49 1135.12 723.49 1134.38 730.95 1145.51 730.52 1146.54 730.44 1146.61 730.44 1146.61 730.44 1146.61 730.52 1146.54 731.17 1146.61 735.71 1157.15 735.71 1168.57 735.71 1206.64 724.44 1207.23 724.22 1282.71 729.71 1353.22 739.52 1289.45 626.77 1289.45 626.77 1289.38 626.7 1289.38 626.77 1288.35 627.28 1273.34 634.46 1258.41 641.56 1243.69 648.59 1229.63 656.79 1228.61 657.38 1228.61 657.38 1228.54 657.45 1228.61 657.45 1233.15 667.11 1236.59 673.34 1237.03 674.14 1237.03 674.21 1237.03 674.21 1236.96 674.21 1234.54 674.51 1191.71 680.22 1168.5 685.71 1114.62 696.62 1110 713.38 1156.2 701.6Z" fill="#faa378" opacity="1" stroke-width="4" stroke="none"></path><path d="M1236.96 674.15L1219.38 676.64" stroke="#000000" stroke-width="4" stroke-linecap="round" opacity="1" fill="none"></path><path d="M1220.19 638.49L1228.54 657.23" stroke="#000000" stroke-width="4" stroke-linecap="round" opacity="1" fill="none"></path><path d="M1174.5 720.79L1146.61 730.52" stroke="#000000" stroke-width="4" stroke-linecap="round" opacity="1" fill="none"></path><path d="M1169.75 710.54L1135.12 723.49" stroke="#000000" stroke-width="4" stroke-linecap="round" opacity="1" fill="none"></path><path d="M1165.13 698.52L1156.27 701.74" stroke="#000000" stroke-width="4" stroke-linecap="round" opacity="1" fill="none"></path><path d="M1019.59 545.21L1020.91 550.26C1020.91 550.26 1012.56 560.51 1011.03 572.89" stroke="#000000" stroke-width="4" stroke-linecap="round" stroke-linejoin="round" opacity="1" fill="none"></path><path d="M1256.94 743.7H1235.93C1234.32 743.7 1233.07 745.17 1233.37 746.78L1236.74 766.54C1238.27 775.62 1243.91 782.36 1253.21 782.36H1254.75" stroke="#1d111d" stroke-width="4" stroke-linecap="round" opacity="1" fill="none"></path></g><g><path d="M428.38 845.23C436.73 845.23 443.49 838.47 443.49 830.12 443.49 821.78 436.73 815.01 428.38 815.01 420.05 815.01 413.27 821.78 413.27 830.12 413.27 838.47 420.05 845.23 428.38 845.23Z" fill="#dd769e" opacity="1" stroke-width="4" stroke="none"></path><path d="M387.78 786.58C386.63 786.58 385.48 786.07 384.78 785.18L375.85 774.4C374.45 772.75 374.71 770.26 376.36 768.92L376.56 768.79C377.26 768.22 378.15 767.9 379.04 767.9 380.19 767.9 381.34 768.41 382.04 769.3L390.96 780.08C391.6 780.91 391.92 781.93 391.85 782.95 391.73 783.97 391.28 784.92 390.45 785.62L390.26 785.75C389.56 786.26 388.67 786.58 387.78 786.58Z" fill="#2b2a2b" opacity="1" stroke-width="4" stroke="none"></path><path d="M313.63 991.41V865.38L263.21 907.26C262 908.28 260.4 908.85 258.81 908.85 256.77 908.85 254.79 907.96 253.52 906.37L253.33 906.18C250.9 903.24 251.29 898.84 254.22 896.42L390.26 783.58 397.97 795.44 327.72 853.71V991.41H313.63Z" fill="#ff30ff" opacity="1" stroke-width="4" stroke="none"></path><path d="M327.72 969.42L313.63 956.98V991.41H327.72V969.42Z" fill="#2b2a2b" opacity="0.2" stroke-width="4" stroke="none"></path><path d="M320.33 865.25C328.43 865.25 334.99 858.68 334.99 850.59 334.99 842.49 328.43 835.92 320.33 835.92 312.23 835.92 305.67 842.49 305.67 850.59 305.67 858.68 312.23 865.25 320.33 865.25Z" fill="#2b2a2b" opacity="1" stroke-width="4" stroke="none"></path><path d="M320.33 856.2C323.43 856.2 325.94 853.68 325.94 850.59 325.94 847.49 323.43 844.98 320.33 844.98 317.23 844.98 314.72 847.49 314.72 850.59 314.72 853.68 317.23 856.2 320.33 856.2Z" fill="#ff31ff" opacity="1" stroke-width="4" stroke="none"></path><path d="M440.5 821.58L417.74 840.39" stroke="#17151c" stroke-width="4" stroke-linecap="round" stroke-linejoin="round" opacity="1" fill="none"></path><path d="M394.91 853.77C389.88 845.87 387.46 836.37 388.09 827L389.43 807.75C389.75 803.54 388.41 799.46 385.74 796.21L380.44 789.83C376.56 785.18 377.19 778.23 381.91 774.34 383.89 772.68 386.37 771.79 388.92 771.79 392.24 771.79 395.3 773.26 397.4 775.74L402.69 782.12C405.37 785.37 409.19 787.41 413.34 787.92L432.53 790.15C441.83 791.23 450.7 795.38 457.52 801.82L459.81 803.92 396.7 856.32 394.91 853.77Z" fill="#ff30ff" opacity="1" stroke-width="4" stroke="none"></path><path d="M389.05 802.9C388.48 800.48 387.39 798.25 385.74 796.27L381.34 790.98" stroke="#17151c" stroke-width="4" stroke-linecap="round" stroke-linejoin="round" opacity="1" fill="none"></path><path d="M280.04 1002.95C280.04 994.79 285.52 987.58 293.36 985.48L313.57 979.93H327.66L348.06 985.48C355.9 987.65 361.38 994.79 361.38 1002.95H280.04Z" fill="#ff30ff" opacity="1" stroke-width="4" stroke="none"></path><path d="M447.76 794.74L390.01 842.49" stroke="#17151c" stroke-width="4" stroke-linecap="round" stroke-linejoin="round" opacity="1" fill="none"></path><path d="M313.63 979.87H327.72" stroke="#17151c" stroke-width="4" stroke-linecap="round" stroke-linejoin="round" opacity="1" fill="none"></path></g><g><path d="M658.71 292.03C653.11 293.59 648.41 297.38 645.67 302.59L640.07 313.28 634.46 302.59C631.72 297.38 627.03 293.59 621.42 292.03 602.51 286.68 587.13 307.68 597.82 324.11L640.07 388.65 682.31 324.11C693 307.68 677.62 286.68 658.71 292.03Z" fill="#ffa0d0" opacity="1" stroke-width="4" stroke="none"></path></g><g><path d="M1225.19 268.74C1220.88 264.54 1217.44 259.53 1215.06 254 1212.69 248.47 1211.43 242.53 1211.36 236.5 1211.29 230.49 1212.41 224.51 1214.65 218.93 1216.89 213.34 1220.22 208.26 1224.43 203.96 1228.64 199.67 1233.66 196.24 1239.2 193.89 1244.74 191.53 1250.69 190.3 1256.71 190.24 1262.73 190.2 1268.7 191.34 1274.28 193.6 1279.85 195.87 1284.93 199.21 1289.21 203.44 1289.43 203.65 1289.64 203.86 1289.85 204.08L1298.64 212.87 1307.23 204.08C1311.46 199.76 1316.5 196.32 1322.07 193.97 1327.63 191.61 1333.61 190.37 1339.66 190.34 1345.7 190.31 1351.69 191.48 1357.28 193.78 1362.88 196.07 1367.96 199.47 1372.23 203.74 1376.5 208.01 1379.88 213.09 1382.19 218.68 1384.49 224.27 1385.65 230.27 1385.61 236.31 1385.58 242.36 1384.36 248.33 1382 253.9 1379.64 259.46 1376.2 264.51 1371.88 268.74L1299.03 341.59 1225.19 268.74Z" fill="#b132ff" opacity="1" stroke-width="4" stroke="none"></path></g><g><path d="M1452.68 443.82C1443.78 449.96 1425.43 457.18 1410.46 442.93 1395.68 428.76 1393.99 418.61 1373.95 410.68 1356.58 403.74 1334.76 416.21 1334.76 416.21L1346.34 463.68C1346.34 463.68 1362.28 455.84 1374.75 461.1 1396.84 470.45 1399.24 494.41 1425.61 499.93 1445.65 504.12 1463.55 491.91 1463.55 491.91L1452.68 443.82Z" fill="#ff30ff" opacity="1" stroke-width="4" stroke="none"></path></g><g><path d="M1149 369.95L1160.69 346.68 1161.11 371.42 1198.81 366.28 1164.96 382.17 1184.18 402.22 1158.21 393.16 1149.98 419.48 1147.11 392 1118.35 398.44 1140.67 379.58 1125.98 357.81 1149 369.95Z" fill="#dd769e" opacity="1" stroke-width="4" stroke="none"></path></g><g><path d="M242.68 750.1H327.41C358.57 750.1 383.9 724.76 383.9 693.61 383.9 665.87 363.76 642.31 336.4 637.88V608.87L294.98 637.12H242.68C211.52 637.12 186.19 662.45 186.19 693.61 186.19 724.89 211.52 750.1 242.68 750.1Z" fill="#61ffff" opacity="1" stroke-width="4" stroke="none"></path><path d="M316.77 686.77C312.5 686.77 309.04 690.23 309.04 694.49 309.04 698.76 312.5 702.22 316.77 702.22 321.04 702.22 324.5 698.76 324.5 694.49 324.5 690.23 321.04 686.77 316.77 686.77Z" fill="#ffffff" opacity="1" stroke-width="4" stroke="none"></path><path d="M285.11 686.77C280.84 686.77 277.38 690.23 277.38 694.49 277.38 698.76 280.84 702.22 285.11 702.22 289.37 702.22 292.83 698.76 292.83 694.49 292.83 690.23 289.37 686.77 285.11 686.77Z" fill="#ffffff" opacity="1" stroke-width="4" stroke="none"></path><path d="M253.31 686.77C249.05 686.77 245.59 690.23 245.59 694.49 245.59 698.76 249.05 702.22 253.31 702.22 257.58 702.22 261.04 698.76 261.04 694.49 261.04 690.23 257.58 686.77 253.31 686.77Z" fill="#ffffff" opacity="1" stroke-width="4" stroke="none"></path></g><g><path d="M958.51 351L998.41 326.11H1104.51C1118.58 326.1 1132.08 320.5 1142.03 310.55 1151.99 300.6 1157.58 287.1 1157.59 273.03 1157.58 258.95 1151.99 245.45 1142.03 235.5 1132.08 225.55 1118.58 219.95 1104.51 219.94H1011.6C997.52 219.95 984.03 225.55 974.07 235.5 964.12 245.45 958.53 258.95 958.51 273.03V351Z" fill="#61ffff" opacity="1" stroke-width="4" stroke="none"></path><path d="M1017.99 282.81C1023.4 282.81 1027.78 278.43 1027.78 273.03 1027.78 267.62 1023.4 263.24 1017.99 263.24 1012.58 263.24 1008.2 267.62 1008.2 273.03 1008.2 278.43 1012.58 282.81 1017.99 282.81Z" fill="#fcfcfc" opacity="1" stroke-width="4" stroke="none"></path><path d="M1057.97 282.81C1063.38 282.81 1067.76 278.43 1067.76 273.03 1067.76 267.62 1063.38 263.24 1057.97 263.24 1052.56 263.24 1048.18 267.62 1048.18 273.03 1048.18 278.43 1052.56 282.81 1057.97 282.81Z" fill="#fcfcfc" opacity="1" stroke-width="4" stroke="none"></path><path d="M1098.12 282.81C1103.53 282.81 1107.91 278.43 1107.91 273.03 1107.91 267.62 1103.53 263.24 1098.12 263.24 1092.71 263.24 1088.33 267.62 1088.33 273.03 1088.33 278.43 1092.71 282.81 1098.12 282.81Z" fill="#fcfcfc" opacity="1" stroke-width="4" stroke="none"></path></g></svg>